<?xml version="1.0" encoding="UTF-8" standalone="no"?>
<svg
   version="1.1"
   width="1287"
   height="1743"
   id="svg7"
   sodipodi:docname="laser_logo_FF4500.svg"
   inkscape:version="1.4.3 (0d15f75042, 2025-12-25)"
   xmlns:inkscape="http://www.inkscape.org/namespaces/inkscape"
   xmlns:sodipodi="http://sodipodi.sourceforge.net/DTD/sodipodi-0.dtd"
   xmlns="http://www.w3.org/2000/svg"
   xmlns:svg="http://www.w3.org/2000/svg">
  <defs
     id="defs7" />
  <sodipodi:namedview
     id="namedview7"
     pagecolor="#ffffff"
     bordercolor="#000000"
     borderopacity="0.25"
     inkscape:showpageshadow="2"
     inkscape:pageopacity="0.0"
     inkscape:pagecheckerboard="0"
     inkscape:deskcolor="#d1d1d1"
     showgrid="false"
     inkscape:zoom="0.51405622"
     inkscape:cx="81.703125"
     inkscape:cy="817.03125"
     inkscape:window-width="1896"
     inkscape:window-height="1147"
     inkscape:window-x="1450"
     inkscape:window-y="39"
     inkscape:window-maximized="1"
     inkscape:current-layer="svg7" />
  <path
     d="M0 0 C0.9980365 -0.00574036 0.9980365 -0.00574036 2.01623535 -0.01159668 C3.41464767 -0.01430313 4.81311172 -0.00703094 6.21142578 0.00976562 C8.33872494 0.03119937 10.46264825 0.0099269 12.58984375 -0.015625 C13.95573654 -0.01298149 15.32162725 -0.00785602 16.6875 0 C18.53118164 0.00676758 18.53118164 0.00676758 20.41210938 0.01367188 C24.49456094 0.62940874 26.64746684 1.95976909 29.84375 4.53125 C32.08000459 7.88563188 33.02068311 11.14009956 34.09375 14.96875 C34.53713676 16.51320001 34.98117376 18.05746346 35.42578125 19.6015625 C35.6573291 20.41012695 35.88887695 21.21869141 36.12744141 22.05175781 C37.31386563 26.15854869 38.54802062 30.25081686 39.78125 34.34375 C40.49023966 36.70185382 41.19900472 39.06002504 41.90771484 41.41821289 C42.40330275 43.06642402 42.89899988 44.71460249 43.39556885 46.36251831 C48.29769472 62.63251778 53.11877234 78.9265354 57.93896484 95.22094727 C58.87485922 98.38454534 59.81139938 101.54795108 60.74853516 104.71118164 C66.81910825 125.20261731 72.86933221 145.69631491 78.5546875 166.29882812 C80.84453124 174.5910098 83.20136263 182.8441665 85.84375 191.03125 C88.34156143 198.78550323 90.57625381 206.5935196 92.74609375 214.4453125 C95.58023624 224.66760422 98.52582923 234.85646917 101.47842407 245.04507446 C107.99312118 267.52681055 114.38926427 290.02782069 120.42895508 312.64257812 C122.09073298 318.83497672 123.86917581 324.96509662 125.81640625 331.07421875 C127.28815091 336.0266675 128.55692701 341.02804095 129.84375 346.03125 C131.64595324 353.03382685 133.53307726 359.96930514 135.71875 366.86328125 C139.88706476 380.45372416 143.57087583 394.1913308 146.92944336 408.00219727 C148.80541294 415.60577213 151.02729628 423.09654567 153.25561523 430.60302734 C155.12477207 436.94279208 156.8437596 443.29680617 158.40625 449.71875 C159.97416805 456.16132971 161.67210543 462.5416682 163.53125 468.90625 C170.56506176 493.11467366 176.70114341 517.59893355 182.7121582 542.07836914 C184.40629647 548.95350048 186.17835441 555.7929256 188.109375 562.60546875 C191.7907875 575.65014207 194.98219126 588.82611449 198.2543335 601.97796631 C198.95189955 604.77897722 199.65207018 607.57933411 200.35226345 610.37968922 C205.90968323 632.61009088 211.41483432 654.85325114 216.40625 677.21875 C216.85254227 679.20899659 217.29942712 681.19910961 217.74630737 683.18922424 C218.18039021 685.12280509 218.61388442 687.05651804 219.04736328 688.99023438 C219.94028125 692.96046191 220.84578655 696.92768363 221.75463867 700.89428711 C230.68178227 739.90660756 239.13517908 779.07132098 245.84375 818.53125 C246.50798551 822.42750394 247.17413568 826.32341667 247.84375 830.21875 C248.00343262 831.14977539 248.16311523 832.08080078 248.32763672 833.04003906 C249.52330966 839.91784608 250.88097044 846.75502459 252.28125 853.59375 C256.40173503 873.83311589 259.65129571 894.22749833 262.41235352 914.69458008 C263.22290187 920.60721267 264.18170476 926.4685658 265.3125 932.328125 C266.7456054 939.77188376 267.88232634 947.23536344 268.91983032 954.74346924 C269.45080374 958.58523402 269.99414998 962.42526264 270.53515625 966.265625 C270.70035011 967.44211105 270.70035011 967.44211105 270.86888123 968.6423645 C271.74061438 974.83934545 272.64949582 981.03011315 273.57055664 987.2199707 C279.56020493 1027.47470157 285.13673411 1067.7859127 290.17333984 1108.17089844 C290.81150697 1113.28429458 291.46143416 1118.39614543 292.11328125 1123.5078125 C297.61727699 1166.77056293 302.39677697 1210.10452143 306.81530762 1253.49061584 C307.55296046 1260.72327381 308.30519948 1267.9542048 309.07421875 1275.18359375 C309.16815918 1276.06770935 309.26209961 1276.95182495 309.35888672 1277.86273193 C309.70531554 1281.11948531 310.05208681 1284.37619599 310.40264893 1287.63250732 C314.52326389 1325.9111594 314.52326389 1325.9111594 308.84375 1334.53125 C302.14114696 1342.46671526 292.55295714 1343.87184996 282.71875 1344.890625 C281.73308548 1345.00041687 280.74742096 1345.11020874 279.73188782 1345.22332764 C276.43691098 1345.58668029 273.14051247 1345.93449767 269.84375 1346.28125 C267.46375628 1346.53813808 265.08379292 1346.7953075 262.70385742 1347.05273438 C231.96908341 1350.34667504 201.19291706 1353.24341124 170.41546631 1356.10552979 C166.67162689 1356.45382139 162.92800279 1356.80436549 159.18445015 1357.15572453 C122.826991 1360.56732645 86.47130807 1363.58765308 50.02287292 1365.8830719 C42.59643723 1366.35091815 35.17291801 1366.85067887 27.75 1367.37109375 C-54.91495071 1373.09876321 -138.40207299 1373.60958205 -221.15625 1369.53125 C-222.04895348 1369.48748985 -222.94165695 1369.44372971 -223.86141205 1369.39864349 C-276.7668771 1366.80144478 -329.63835764 1363.74562498 -382.46875 1359.90625 C-383.44170895 1359.83568516 -384.41466789 1359.76512032 -385.41711044 1359.69241714 C-407.90027079 1358.05918319 -430.37135396 1356.29320916 -452.8359375 1354.421875 C-454.33225677 1354.29725451 -454.33225677 1354.29725451 -455.8588047 1354.17011642 C-504.26013209 1350.12866194 -504.26013209 1350.12866194 -508.15625 1347.53125 C-509.09375 1344.15625 -509.09375 1344.15625 -509.15625 1340.53125 C-507.53596497 1338.32345581 -507.53596497 1338.32345581 -505.15625 1336.53125 C-502.39897156 1336.11233521 -502.39897156 1336.11233521 -499.14331055 1336.23095703 C-497.89214447 1336.26739319 -496.64097839 1336.30382935 -495.35189819 1336.34136963 C-493.95331759 1336.40396983 -492.5547691 1336.46729054 -491.15625 1336.53125 C-489.66847525 1336.58500471 -488.18064899 1336.6373491 -486.69277954 1336.68841553 C-482.50123521 1336.83996787 -478.3114578 1337.02142495 -474.12148285 1337.21112633 C-471.2762776 1337.3398745 -468.43092569 1337.46480959 -465.58551025 1337.58882141 C-461.5013017 1337.76700376 -457.41715157 1337.94644691 -453.33303833 1338.12680054 C-411.94992669 1339.9492916 -370.57009295 1341.60790203 -329.15625 1342.53125 C-327.84672363 1342.56047546 -326.53719727 1342.58970093 -325.18798828 1342.61981201 C-283.33174916 1343.53081734 -241.47193336 1343.6306301 -199.60703659 1343.65373993 C-195.67935778 1343.65623532 -191.75168248 1343.66019631 -187.82400513 1343.66436768 C-181.57954673 1343.67028609 -175.33511367 1343.67025423 -169.09065437 1343.66569519 C-166.77343832 1343.66462287 -164.45622088 1343.66513248 -162.13900566 1343.66737366 C-150.91075154 1343.67639714 -139.74520484 1343.61557129 -128.54551697 1342.76249695 C-124.85766784 1342.51087798 -121.19973573 1342.4168001 -117.50390625 1342.35546875 C-116.77296249 1342.34288025 -116.04201874 1342.33029175 -115.28892517 1342.31732178 C-114.40135277 1342.30478363 -114.40135277 1342.30478363 -113.49584961 1342.29199219 C-70.53763419 1341.59840089 -27.65996832 1337.44007901 15.05859375 1333.11181641 C20.24544348 1332.5879386 25.43450195 1332.09164773 30.625 1331.60546875 C95.19561096 1325.5089233 159.69047811 1316.99765366 223.84375 1307.53125 C211.47168791 1307.41023474 199.15835676 1307.73078994 186.79894447 1308.27503777 C164.75298328 1309.23603146 142.70304065 1309.91658576 120.64453125 1310.49609375 C119.89957822 1310.51572922 119.1546252 1310.53536468 118.38709784 1310.55559516 C109.06910998 1310.80112018 99.75100895 1311.0421477 90.4328593 1311.28144437 C75.43799877 1311.66677134 60.44336323 1312.06078357 45.44880056 1312.45751739 C43.78778488 1312.50145979 42.12676809 1312.54536077 40.46575022 1312.58922029 C20.49976279 1313.11658218 0.53561435 1313.66857454 -19.42578125 1314.3515625 C-20.81565845 1314.39892611 -20.81565845 1314.39892611 -22.23361397 1314.44724655 C-25.87733181 1314.57149632 -29.52103543 1314.6961578 -33.16473103 1314.82105827 C-87.06340701 1316.66671186 -140.97907036 1317.54253318 -194.8996582 1318.47241211 C-196.23595258 1318.49546388 -196.23595258 1318.49546388 -197.59924281 1318.51898134 C-199.3887876 1318.54985128 -201.17833244 1318.58071829 -202.96787733 1318.61158234 C-206.50273695 1318.67255172 -210.03759604 1318.73355123 -213.57245517 1318.79454923 C-215.322964 1318.82473408 -217.07347342 1318.85488467 -218.82398343 1318.88500094 C-246.47077043 1319.36064505 -274.11397411 1319.92407257 -301.75681305 1320.59370804 C-333.88798809 1321.37051349 -366.01724077 1321.83916164 -398.15625 1322.15625 C-399.20919125 1322.16669594 -400.26213249 1322.17714188 -401.34698105 1322.18790436 C-423.95000305 1322.41054441 -446.55191735 1322.61167338 -469.15625 1322.53125 C-469.71875 1320.59375 -469.71875 1320.59375 -470.15625 1318.53125 C-468.17870668 1316.55370668 -464.37354712 1317.08794662 -461.66015625 1316.91796875 C-460.84283524 1316.86368713 -460.02551422 1316.80940552 -459.1834259 1316.753479 C-456.36222706 1316.56907315 -453.54057577 1316.39328964 -450.71875 1316.21875 C-449.72296936 1316.15599884 -448.72718872 1316.09324768 -447.70123291 1316.02859497 C-400.61029785 1313.07904981 -353.44849063 1310.91987981 -306.29614258 1309.24755859 C-290.27431351 1308.67525244 -274.26150593 1307.95654432 -258.24784088 1307.19074249 C-252.09368074 1306.89656773 -245.93942861 1306.60431663 -239.78515625 1306.3125 C-239.09779137 1306.27990711 -238.41042648 1306.24731422 -237.70223236 1306.21373367 C-209.52486291 1304.87936313 -181.34163531 1303.68241971 -153.15625 1302.53125 C-152.25926392 1302.49459229 -151.36227783 1302.45793457 -150.43811035 1302.42016602 C-89.38463915 1299.92775005 -28.32336336 1297.7953295 32.75195312 1295.92602539 C37.7877752 1295.77147323 42.82358187 1295.61642984 47.859375 1295.4609375 C49.08368036 1295.42316319 50.30798573 1295.38538887 51.56939125 1295.34646988 C71.37628165 1294.73232642 91.17727298 1294.00389644 110.97825623 1293.22398376 C128.20207042 1292.54649512 145.42633282 1291.96640255 162.65625 1291.46875 C164.05830079 1291.42766164 165.4603495 1291.38650211 166.86239624 1291.34527588 C185.29220519 1290.80431669 203.72283358 1290.30874981 222.15625 1289.90625 C223.07242096 1289.8856955 223.98859192 1289.86514099 224.93252563 1289.84396362 C238.23746894 1289.55016074 251.53576576 1289.48442345 264.84375 1289.53125 C263.7959298 1277.4265683 262.74401125 1265.3222511 261.68734741 1253.21833801 C261.16307498 1247.20898685 260.6426783 1241.19932591 260.12690735 1235.1892395 C254.59648081 1170.84895224 248.13392329 1106.44591053 239.62109375 1042.42480469 C239.44023476 1041.05557106 239.44023476 1041.05557106 239.25572205 1039.65867615 C239.03355515 1037.98204056 238.80850309 1036.30578339 238.57984924 1034.63002014 C238.08532476 1030.90556978 237.7164109 1027.29031902 237.84375 1023.53125 C222.58696288 1029.45532469 207.39501707 1035.50020067 192.28417969 1041.78857422 C182.84597066 1045.71391841 173.38241174 1049.57349604 163.90625 1053.40625 C148.20873226 1059.75675622 132.52418041 1066.13867021 116.84375 1072.53125 C101.5787258 1078.75399206 86.31121775 1084.9702884 71.03125 1091.15625 C57.14640707 1096.77803191 43.27420969 1102.43045414 29.40625 1108.09375 C28.38594696 1108.51040924 27.36564392 1108.92706848 26.31442261 1109.35635376 C25.28825836 1109.77540985 24.26209412 1110.19446594 23.20483398 1110.6262207 C-8.11587693 1123.41662332 -39.43912142 1136.20108591 -70.79772949 1148.89834595 C-85.25936409 1154.75441071 -99.70814605 1160.64189355 -114.15625 1166.53125 C-129.31751509 1172.71130619 -144.48059842 1178.88659913 -159.65625 1185.03125 C-174.47667444 1191.03265628 -189.28655887 1197.05977122 -204.09375 1203.09375 C-205.2336438 1203.55824554 -206.3735376 1204.02274109 -207.54797363 1204.50131226 C-218.09048154 1208.79743524 -228.6325887 1213.09454105 -239.17431641 1217.39257812 C-246.08478195 1220.21007462 -252.99541872 1223.0271507 -259.90625 1225.84375 C-261.03613342 1226.30425751 -262.16601685 1226.76476501 -263.33013916 1227.23922729 C-278.87716046 1233.57489697 -294.43316092 1239.88788551 -309.99841309 1246.17861938 C-324.23058371 1251.9313811 -338.44591155 1257.72478742 -352.65625 1263.53125 C-368.0631208 1269.82643181 -383.47702616 1276.10354152 -398.90625 1282.34375 C-400.18015594 1282.85906784 -400.18015594 1282.85906784 -401.47979736 1283.38479614 C-409.15144055 1286.48795644 -416.8238236 1289.58928347 -424.49707031 1292.68847656 C-428.85280269 1294.44781347 -433.20790675 1296.20869783 -437.56262207 1297.97055054 C-439.19119551 1298.62907064 -440.82001526 1299.28698196 -442.44909668 1299.94424438 C-444.68281151 1300.84546514 -446.91571184 1301.74867574 -449.1484375 1302.65234375 C-449.80361359 1302.91608795 -450.45878967 1303.17983215 -451.13381958 1303.4515686 C-453.62813305 1304.46301626 -456.06796668 1305.4850068 -458.45361328 1306.73461914 C-460.69116451 1307.78152617 -461.88269166 1307.34323512 -464.15625 1306.53125 C-464.05395508 1304.73339844 -464.05395508 1304.73339844 -463.15625 1302.53125 C-460.4519043 1300.89941406 -460.4519043 1300.89941406 -456.79296875 1299.296875 C-455.79229622 1298.8520578 -455.79229622 1298.8520578 -454.77140808 1298.39825439 C-452.57294034 1297.4266993 -450.36550317 1296.47799623 -448.15625 1295.53125 C-446.66854884 1294.88400047 -445.18108327 1294.23620917 -443.69384766 1293.58789062 C-439.66802472 1291.84084095 -435.63284442 1290.11645052 -431.59454346 1288.39846802 C-426.97088086 1286.43120013 -422.3509871 1284.45510733 -417.73046875 1282.48046875 C-416.77414551 1282.07203232 -415.81782227 1281.66359589 -414.83251953 1281.24278259 C-404.63713753 1276.88666641 -394.45824467 1272.49261374 -384.28125 1268.09375 C-382.43368276 1267.29547387 -380.58610786 1266.49721549 -378.73852539 1265.69897461 C-371.43872674 1262.54476042 -364.13955882 1259.38908838 -356.84082031 1256.23242188 C-351.52963645 1253.93541196 -346.21807806 1251.63926979 -340.90625 1249.34375 C-340.0245816 1248.96268097 -339.14291321 1248.58161194 -338.23452759 1248.18899536 C-326.77024449 1243.2351869 -315.29728016 1238.30195648 -303.81640625 1233.38671875 C-303.20128803 1233.12333017 -302.58616982 1232.8599416 -301.95241165 1232.58857155 C-295.3120537 1229.74524934 -288.67088735 1226.90383254 -282.02832031 1224.06567383 C-269.95750955 1218.90383509 -257.91491053 1213.68431351 -245.90466309 1208.38302612 C-237.96785591 1204.88137687 -230.0084579 1201.43680037 -222.02859497 1198.03457642 C-218.33542544 1196.45979365 -214.64430086 1194.88023017 -210.953125 1193.30078125 C-209.84083275 1192.82492836 -209.84083275 1192.82492836 -208.70606995 1192.33946228 C-201.36687053 1189.19744967 -194.04160013 1186.02363964 -186.71875 1182.84375 C-177.35404237 1178.77787876 -167.98031751 1174.73394623 -158.59375 1170.71875 C-147.6456974 1166.03467226 -136.71045722 1161.32160102 -125.78125 1156.59375 C-124.59766403 1156.08177063 -124.59766403 1156.08177063 -123.39016724 1155.55944824 C-115.37809621 1152.09327451 -107.36737391 1148.6240092 -99.359375 1145.1484375 C-85.70503943 1139.22297324 -72.03760127 1133.33001197 -58.35324097 1127.47424316 C-45.75507576 1122.08263997 -33.17222937 1116.65610363 -20.59375 1111.21875 C-5.74829099 1104.80256395 9.10409667 1098.40285311 23.96875 1092.03125 C24.84696411 1091.65475311 25.72517822 1091.27825623 26.63000488 1090.89035034 C35.00981989 1087.29893146 43.39187301 1083.71327685 51.79296875 1080.171875 C52.97165527 1079.67494141 54.1503418 1079.17800781 55.36474609 1078.66601562 C57.44090165 1077.7925581 59.51793343 1076.92117767 61.59619141 1076.05273438 C66.48105788 1074.00121114 71.31325485 1071.8678616 76.1171875 1069.6328125 C82.55071226 1066.64333552 89.04964529 1063.82183907 95.57583618 1061.04238892 C97.75927125 1060.11236876 99.94162918 1059.1798571 102.1237793 1058.24682617 C105.47150814 1056.81562228 108.81960862 1055.38529273 112.16796875 1053.95556641 C123.16693203 1049.25833525 134.16207369 1044.55217269 145.15625 1039.84375 C146.34672943 1039.33396606 147.53720886 1038.82418213 148.76376343 1038.2989502 C168.46794701 1029.85893526 188.13959426 1021.3461127 207.78895569 1012.77931213 C209.07291481 1012.21952919 209.07291481 1012.21952919 210.3828125 1011.6484375 C211.20530991 1011.28979111 212.02780731 1010.93114471 212.87522888 1010.56163025 C219.85215466 1007.5219147 226.84332711 1004.51644594 233.84375 1001.53125 C233.92105483 996.35325163 233.69768656 991.45212248 232.99609375 986.30859375 C232.90420776 985.62689621 232.81232178 984.94519867 232.71765137 984.24284363 C232.41117871 981.98399797 232.09644645 979.72639365 231.78125 977.46875 C231.55916754 975.84946836 231.33724798 974.23016438 231.11547852 972.61083984 C229.13544596 958.25359026 226.98316673 943.92192685 224.81826782 929.59158325 C223.04893234 917.87653521 221.37926316 906.17037285 219.96875 894.40625 C218.19057355 879.76795552 215.69830159 865.25205147 213.21875 850.71875 C213.01848206 849.54447449 212.81821411 848.37019897 212.61187744 847.16033936 C212.03316994 843.77696668 211.45121408 840.39417706 210.8671875 837.01171875 C210.69334534 836.00248856 210.51950317 834.99325836 210.34039307 833.95344543 C209.39892545 828.54187713 208.38974697 823.15225809 207.27267456 817.77404785 C206.51722692 813.82389789 206.08054781 809.83412074 205.59375 805.84375 C204.33668334 796.08116628 202.59529116 786.43963036 200.71875 776.78125 C200.58464722 776.0864151 200.45054443 775.3915802 200.31237793 774.6756897 C199.19893377 767.4068972 199.19893377 767.4068972 196.84375 760.53125 C195.85117187 761.34207031 194.85859375 762.15289063 193.8359375 762.98828125 C187.23530698 768.37078722 180.62451864 773.73349297 173.90625 778.96875 C167.22476836 784.18279448 160.69127203 789.56830406 154.16015625 794.96875 C145.02060845 802.52339317 135.80266046 809.9829295 126.53125 817.375 C122.95537179 820.24401857 119.39987073 823.13780122 115.84375 826.03125 C110.75794351 830.1693324 105.65788749 834.28754579 100.53125 838.375 C96.95537153 841.24401878 93.39989463 844.13783022 89.84375 847.03125 C83.11766535 852.50312044 76.36022994 857.93364012 69.578125 863.3359375 C65.08315572 866.92298252 60.60877014 870.53374554 56.15112305 874.16699219 C50.44217459 878.81978179 44.71483024 883.44080823 38.90625 887.96875 C32.21974129 893.18690522 25.68142916 898.57682989 19.14453125 903.98046875 C9.59575877 911.87271146 -0.02102636 919.67149071 -9.78881836 927.29101562 C-15.30998884 931.61594554 -20.71418508 936.07900882 -26.11865234 940.54833984 C-30.55317245 944.21497768 -35.01434345 947.84220116 -39.51953125 951.421875 C-43.00032105 954.20650684 -46.45143783 957.02699972 -49.90625 959.84375 C-54.92975767 963.93702197 -59.98294754 967.98506992 -65.09375 971.96875 C-71.09915405 976.65196598 -76.97475071 981.48206457 -82.83959961 986.33959961 C-87.23026898 989.96814126 -91.66135105 993.53283717 -96.15625 997.03125 C-102.23422735 1001.76258321 -108.18347281 1006.64005475 -114.11889648 1011.54858398 C-118.55337075 1015.21509643 -123.01443335 1018.84227259 -127.51953125 1022.421875 C-131.00032105 1025.20650684 -134.45143783 1028.02699972 -137.90625 1030.84375 C-142.92975909 1034.93702313 -147.98298899 1038.98501519 -153.09375 1042.96875 C-159.18985088 1047.72363838 -165.16100987 1052.62154965 -171.11865234 1057.54833984 C-175.55317245 1061.21497768 -180.01434345 1064.84220116 -184.51953125 1068.421875 C-188.00032105 1071.20650684 -191.45143783 1074.02699972 -194.90625 1076.84375 C-199.92975909 1080.93702313 -204.98298899 1084.98501519 -210.09375 1088.96875 C-216.18985088 1093.72363838 -222.16100987 1098.62154965 -228.11865234 1103.54833984 C-232.54815062 1107.21082543 -237.00449354 1110.83369999 -241.50390625 1114.41015625 C-245.07153658 1117.26320967 -248.61320613 1120.14775674 -252.15625 1123.03125 C-257.24705233 1127.17350666 -262.3518501 1131.29619974 -267.484375 1135.38671875 C-270.27914236 1137.62988729 -273.05800056 1139.8917623 -275.83569336 1142.15600586 C-281.54874483 1146.81280633 -287.28048268 1151.43752474 -293.09375 1155.96875 C-299.09915405 1160.65196598 -304.97475071 1165.48206457 -310.83959961 1170.33959961 C-315.78159335 1174.42376734 -320.78850604 1178.41016521 -325.84765625 1182.34765625 C-330.51724005 1185.996101 -335.09265885 1189.75138828 -339.65625 1193.53125 C-345.32223799 1198.22418817 -351.04196479 1202.82913888 -356.84765625 1207.34765625 C-361.51724005 1210.996101 -366.09265885 1214.75138828 -370.65625 1218.53125 C-376.32223799 1223.22418817 -382.04196479 1227.82913888 -387.84765625 1232.34765625 C-393.25906723 1236.57570629 -398.54343856 1240.95203342 -403.83105469 1245.33325195 C-408.30443278 1249.03114307 -412.82446842 1252.65628612 -417.40625 1256.21875 C-421.91291455 1259.72393354 -426.31850913 1263.31908808 -430.65625 1267.03125 C-435.57945018 1271.24357792 -440.60835886 1275.28823816 -445.71923828 1279.27001953 C-452.25571207 1284.3695109 -458.67458013 1289.61095628 -465.09765625 1294.85205078 C-485.94532493 1311.85753764 -485.94532493 1311.85753764 -493.15625 1317.53125 C-493.8575 1318.10230469 -494.55875 1318.67335938 -495.28125 1319.26171875 C-497.15625 1320.53125 -497.15625 1320.53125 -499.40625 1320.21875 C-499.98375 1319.991875 -500.56125 1319.765 -501.15625 1319.53125 C-501.06723411 1316.86077343 -500.63155779 1315.06990857 -498.84472656 1313.04492188 C-497.03386065 1311.39714964 -495.17671525 1309.83099857 -493.28125 1308.28125 C-492.6001416 1307.70842285 -491.9190332 1307.1355957 -491.21728516 1306.54541016 C-489.20751045 1304.86075302 -487.18466174 1303.19339207 -485.15625 1301.53125 C-484.17140625 1300.71914062 -483.1865625 1299.90703125 -482.171875 1299.0703125 C-480.41811605 1297.63306034 -478.66032022 1296.20071935 -476.8984375 1294.7734375 C-473.78624852 1292.22871317 -470.71898503 1289.63506775 -467.65625 1287.03125 C-462.80676278 1282.91011052 -457.90463877 1278.86133388 -452.96875 1274.84375 C-449.83825334 1272.26978608 -446.74452539 1269.65555914 -443.65625 1267.03125 C-438.80665619 1262.91023366 -433.90464194 1258.86133646 -428.96875 1254.84375 C-425.83825334 1252.26978608 -422.74452539 1249.65555914 -419.65625 1247.03125 C-414.80665619 1242.91023366 -409.90464194 1238.86133646 -404.96875 1234.84375 C-401.2753109 1231.8069223 -397.63326514 1228.71164045 -393.98999023 1225.61499023 C-390.59670891 1222.7357968 -387.17357214 1219.89920763 -383.71875 1217.09375 C-379.47232618 1213.63850849 -375.30328706 1210.10427166 -371.15625 1206.53125 C-366.14305512 1202.21196044 -361.0708768 1197.98027881 -355.93359375 1193.80859375 C-352.81228633 1191.24920946 -349.7317497 1188.64531209 -346.65625 1186.03125 C-341.80670949 1181.91017208 -336.90464036 1177.86133517 -331.96875 1173.84375 C-328.83825334 1171.26978608 -325.74452539 1168.65555914 -322.65625 1166.03125 C-317.80665619 1161.91023366 -312.90464194 1157.86133646 -307.96875 1153.84375 C-304.83825334 1151.26978608 -301.74452539 1148.65555914 -298.65625 1146.03125 C-293.80665619 1141.91023366 -288.90464194 1137.86133646 -283.96875 1133.84375 C-280.2753109 1130.8069223 -276.63326514 1127.71164045 -272.98999023 1124.61499023 C-269.59670891 1121.7357968 -266.17357214 1118.89920763 -262.71875 1116.09375 C-258.47232618 1112.63850849 -254.30328706 1109.10427166 -250.15625 1105.53125 C-245.14305512 1101.21196044 -240.0708768 1096.98027881 -234.93359375 1092.80859375 C-231.81228633 1090.24920946 -228.7317497 1087.64531209 -225.65625 1085.03125 C-220.80670949 1080.91017208 -215.90464036 1076.86133517 -210.96875 1072.84375 C-207.83825334 1070.26978608 -204.74452539 1067.65555914 -201.65625 1065.03125 C-196.80665619 1060.91023366 -191.90464194 1056.86133646 -186.96875 1052.84375 C-183.83825334 1050.26978608 -180.74452539 1047.65555914 -177.65625 1045.03125 C-172.80665619 1040.91023366 -167.90464194 1036.86133646 -162.96875 1032.84375 C-159.2753109 1029.8069223 -155.63326514 1026.71164045 -151.98999023 1023.61499023 C-148.59670891 1020.7357968 -145.17357214 1017.89920763 -141.71875 1015.09375 C-137.47232618 1011.63850849 -133.30328706 1008.10427166 -129.15625 1004.53125 C-124.14305512 1000.21196044 -119.0708768 995.98027881 -113.93359375 991.80859375 C-110.81228633 989.24920946 -107.7317497 986.64531209 -104.65625 984.03125 C-99.80670949 979.91017208 -94.90464036 975.86133517 -89.96875 971.84375 C-86.83825334 969.26978608 -83.74452539 966.65555914 -80.65625 964.03125 C-75.80665619 959.91023366 -70.90464194 955.86133646 -65.96875 951.84375 C-62.83825334 949.26978608 -59.74452539 946.65555914 -56.65625 944.03125 C-51.80665619 939.91023366 -46.90464194 935.86133646 -41.96875 931.84375 C-38.2753109 928.8069223 -34.63326514 925.71164045 -30.98999023 922.61499023 C-27.59670891 919.7357968 -24.17357214 916.89920763 -20.71875 914.09375 C-16.47232618 910.63850849 -12.30328706 907.10427166 -8.15625 903.53125 C-3.14305512 899.21196044 1.9291232 894.98027881 7.06640625 890.80859375 C10.18771367 888.24920946 13.2682503 885.64531209 16.34375 883.03125 C21.19329051 878.91017208 26.09535964 874.86133517 31.03125 870.84375 C34.16174666 868.26978608 37.25547461 865.65555914 40.34375 863.03125 C45.19334381 858.91023366 50.09535806 854.86133646 55.03125 850.84375 C58.16174666 848.26978608 61.25547461 845.65555914 64.34375 843.03125 C69.19334381 838.91023366 74.09535806 834.86133646 79.03125 830.84375 C82.7246891 827.8069223 86.36673486 824.71164045 90.01000977 821.61499023 C93.40329109 818.7357968 96.82642786 815.89920763 100.28125 813.09375 C104.52767382 809.63850849 108.69671294 806.10427166 112.84375 802.53125 C117.85694488 798.21196044 122.9291232 793.98027881 128.06640625 789.80859375 C131.18771367 787.24920946 134.2682503 784.64531209 137.34375 782.03125 C142.19329051 777.91017208 147.09535964 773.86133517 152.03125 769.84375 C155.16174666 767.26978608 158.25547461 764.65555914 161.34375 762.03125 C165.31282935 758.65846426 169.30391863 755.31948483 173.34375 752.03125 C174.21515625 751.30808594 175.0865625 750.58492187 175.984375 749.83984375 C178.11196733 748.12207454 180.24883486 746.49147572 182.453125 744.87890625 C183.66688817 743.95081045 184.88043318 743.02242925 186.09375 742.09375 C186.67962891 741.68769531 187.26550781 741.28164063 187.86914062 740.86328125 C189.78340042 739.47099231 189.78340042 739.47099231 191.84375 736.53125 C191.97969872 734.30941139 191.97969872 734.30941139 191.60498047 731.90673828 C191.49154297 731.01718948 191.37810547 730.12764069 191.26123047 729.21113586 C190.64569957 725.25992694 189.88432446 721.36158948 189.0234375 717.45703125 C188.84413696 716.62325455 188.66483643 715.78947784 188.48010254 714.93043518 C187.89851093 712.23364283 187.30885562 709.53869094 186.71875 706.84375 C186.30907921 704.95400995 185.89974045 703.0641979 185.49072266 701.17431641 C182.84671437 688.98820759 180.13721022 676.81732773 177.36425781 664.65991211 C175.78475616 657.73164349 174.24474232 650.79680303 172.74942017 643.84986877 C169.63487593 629.38369813 166.30372088 614.98853676 162.76531982 600.61987305 C160.08633687 589.7405298 157.52369456 578.84387921 155.09375 567.90625 C153.12624888 559.06084598 151.07577386 550.26509476 148.68728638 541.5236969 C147.20491683 536.04115995 145.92025919 530.53323985 144.6953125 524.98828125 C141.65611987 511.44264183 138.28238436 497.9809103 134.90527344 484.51660156 C134.01802766 480.97905361 133.13508241 477.44044817 132.25323868 473.90155029 C127.53371459 454.96873005 127.53371459 454.96873005 122.41351318 436.14117432 C120.8087054 430.47284523 119.4040821 424.77384637 118.09375 419.03125 C117.6845286 417.24948476 117.27318219 415.4682058 116.859375 413.6875 C116.68696289 412.93275391 116.51455078 412.17800781 116.33691406 411.40039062 C115.89275948 409.45907402 115.89275948 409.45907402 114.84375 407.53125 C113.15625 410.0625 113.15625 410.0625 111.46875 412.59375 C109.1953125 416.00390625 106.921875 419.4140625 104.6484375 422.82421875 C104.27662354 423.38197998 103.90480957 423.93974121 103.52172852 424.5144043 C102.70726147 425.73602047 101.89263529 426.95753055 101.07788086 428.17895508 C98.60429971 431.88774898 96.13418641 435.59880505 93.66796875 439.3125 C87.27474967 448.93031839 80.85337581 458.52781238 74.3828125 468.09375 C60.39627842 488.77575162 46.50974684 509.51584031 32.82543945 530.39941406 C26.37217452 540.23930691 19.82169855 550.00202677 13.15673828 559.69970703 C7.22553168 568.3345963 1.38562024 577.03168528 -4.46875 585.71875 C-5.42077301 587.13065109 -5.42077301 587.13065109 -6.39202881 588.57107544 C-14.1726034 600.1104732 -21.92969761 611.66442374 -29.63330078 623.25537109 C-34.70659697 630.87951682 -39.84344029 638.45973482 -44.99221802 646.03302002 C-53.09471621 657.95173868 -61.16003377 669.89539305 -69.21875 681.84375 C-69.83744965 682.76072662 -70.45614929 683.67770325 -71.09359741 684.62246704 C-80.06884751 697.92541337 -88.99233885 711.26114894 -97.87055969 724.62898254 C-100.10581642 727.99377502 -102.34255832 731.35757868 -104.57958984 734.72119141 C-105.71842884 736.43451504 -106.85644364 738.1483868 -107.99365234 739.86279297 C-113.54960535 748.23728269 -119.11088419 756.56837315 -125.08642578 764.65136719 C-129.9304746 771.39121148 -134.44533642 778.36450905 -139.03125 785.28125 C-140.06618629 786.83868786 -141.1013415 788.39598026 -142.13671875 789.953125 C-144.17367654 793.0172213 -146.20971801 796.08192283 -148.24487305 799.1472168 C-155.47733305 810.03927798 -162.74212128 820.90662496 -170.09375 831.71875 C-170.91266448 832.92418963 -171.73151036 834.12967587 -172.55029297 835.33520508 C-174.24242333 837.82650626 -175.93484102 840.31761189 -177.62744141 842.80859375 C-180.09044569 846.43382559 -182.55141804 850.06043297 -185.01171875 853.6875 C-185.40683151 854.26998001 -185.80194427 854.85246002 -186.20903015 855.45259094 C-187.00337874 856.62363589 -187.79772587 857.79468183 -188.59207153 858.96572876 C-195.63361462 869.34598281 -202.68309679 879.72080808 -209.73828125 890.09179688 C-214.68537515 897.36503827 -219.62550233 904.64297592 -224.56304932 911.92269897 C-231.23073739 921.75318764 -237.90844394 931.57671303 -244.60302734 941.38891602 C-255.76235645 957.7460882 -266.88502005 974.12816726 -277.99993896 990.51553345 C-283.75623372 999.00185159 -289.52698877 1007.47816735 -295.30859375 1015.94726562 C-300.81884878 1024.02466506 -306.30037598 1032.12140449 -311.78125 1040.21875 C-317.97110609 1049.36328515 -324.17140406 1058.50005365 -330.41552734 1067.60766602 C-336.96032091 1077.15609359 -343.46051228 1086.73488264 -349.96679688 1096.30957031 C-353.52880769 1101.55090558 -357.09259132 1106.79103507 -360.65625 1112.03125 C-364.93015624 1118.31608771 -369.20383329 1124.60108077 -373.4765625 1130.88671875 C-398.83431193 1168.18883465 -398.83431193 1168.18883465 -410.84570312 1185.62792969 C-413.11780059 1188.92771952 -415.38686289 1192.22959584 -417.65625 1195.53125 C-420.35797746 1199.46190145 -423.06012709 1203.39225501 -425.765625 1207.3203125 C-431.68770956 1215.92133037 -437.57876171 1224.54316309 -443.45898438 1233.17285156 C-449.17105555 1241.5553885 -454.8937428 1249.93058191 -460.62744141 1258.29833984 C-462.15333002 1260.52698521 -463.67643031 1262.7575168 -465.19921875 1264.98828125 C-467.4598749 1268.29719979 -469.73335582 1271.59684822 -472.01953125 1274.88818359 C-473.03270916 1276.3526783 -474.03290154 1277.82613737 -475.03125 1279.30078125 C-476.59375 1281.53125 -476.59375 1281.53125 -479.15625 1284.53125 C-480.47625 1284.53125 -481.79625 1284.53125 -483.15625 1284.53125 C-482.63694371 1279.89163023 -481.45600935 1276.90027218 -478.91015625 1273.00390625 C-478.24250244 1271.97177002 -477.57484863 1270.93963379 -476.88696289 1269.8762207 C-476.17145264 1268.79300537 -475.45594238 1267.70979004 -474.71875 1266.59375 C-473.98282185 1265.46432016 -473.2477189 1264.33435222 -472.51342773 1263.20385742 C-470.40844125 1259.97031649 -468.2848785 1256.74928464 -466.15625 1253.53125 C-465.36927734 1252.34112305 -465.36927734 1252.34112305 -464.56640625 1251.12695312 C-462.5062301 1248.01918032 -460.43447612 1244.91941669 -458.35546875 1241.82421875 C-453.96307772 1235.24733484 -449.73040745 1228.56694187 -445.47753906 1221.89941406 C-435.79593961 1206.72354536 -426.01107796 1191.62123061 -416.14306641 1176.56591797 C-409.6472264 1166.64415694 -403.18270391 1156.70168649 -396.78125 1146.71875 C-390.94864188 1137.62924756 -385.03271828 1128.59397351 -379.12792969 1119.55126953 C-375.968832 1114.7124832 -372.81264449 1109.8717999 -369.65625 1105.03125 C-368.40626491 1103.11457361 -367.15626488 1101.19790696 -365.90625 1099.28125 C-365.2875 1098.3325 -364.66875 1097.38375 -364.03125 1096.40625 C-362.15625 1093.53125 -360.28125 1090.65625 -358.40625 1087.78125 C-357.4783667 1086.35848755 -357.4783667 1086.35848755 -356.53173828 1084.90698242 C-355.28013053 1082.9878614 -354.02850289 1081.06875335 -352.77685547 1079.1496582 C-349.67629182 1074.39564867 -346.57605988 1069.64142353 -343.4765625 1064.88671875 C-336.15883005 1053.66206135 -328.83141108 1042.44379275 -321.49707031 1031.22998047 C-314.99478695 1021.28713979 -308.50422596 1011.33668678 -302.01660156 1001.38427734 C-300.1030436 998.44965289 -298.18837935 995.51575283 -296.2734375 992.58203125 C-290.80272736 984.19971361 -285.33368351 975.81666828 -279.90625 967.40625 C-274.11877716 958.44142799 -268.26193742 949.52202912 -262.40942383 940.59960938 C-258.05816492 933.96515707 -253.71686148 927.3245337 -249.39233398 920.67260742 C-242.89401228 910.67769997 -236.30353359 900.74881942 -229.6713562 890.84259033 C-224.82592407 883.60004657 -220.06662197 876.31825813 -215.49658203 868.8984375 C-212.4581873 863.97373351 -209.27939511 859.1552699 -206.04849243 854.35508728 C-202.97680775 849.78491551 -199.9703479 845.17589292 -196.98828125 840.546875 C-191.62673191 832.24378076 -186.21428292 823.97519194 -180.78125 815.71875 C-179.79515306 814.21949094 -178.80906952 812.72022307 -177.82299805 811.22094727 C-175.71144899 808.01089361 -173.59931914 804.80122299 -171.48681641 801.59179688 C-169.23053779 798.16390079 -166.97505615 794.73548233 -164.72021484 791.30664062 C-149.97451727 768.88466739 -135.17653282 746.49929917 -120.25317383 724.19506836 C-115.42568955 716.97540455 -110.61807028 709.75297822 -105.98632812 702.40551758 C-101.60263844 695.52062181 -97.0824752 688.72291403 -92.59375 681.90625 C-92.05111511 681.08154205 -91.50848022 680.25683411 -90.94940186 679.40713501 C-82.63795123 666.77659053 -74.27348519 654.18233234 -65.87277222 641.61102295 C-61.08660705 634.44781569 -56.31145401 627.28057159 -51.65625 620.03125 C-48.10460737 614.51205235 -44.50767666 609.02605596 -40.859375 603.5703125 C-40.3784137 602.84963593 -39.89745239 602.12895935 -39.4019165 601.38644409 C-36.94863668 597.71072363 -34.49204054 594.03723895 -32.03320312 590.36523438 C-27.5883111 583.72163528 -23.1850249 577.06182416 -18.91748047 570.30224609 C-15.6829755 565.21330357 -12.36718323 560.1770151 -9.05981445 555.13525391 C-7.85463784 553.29784954 -6.65086863 551.45952919 -5.44726562 549.62109375 C0.27067633 540.89376228 6.04615234 532.20581301 11.84375 523.53125 C27.65988032 499.85669827 43.42618986 476.15108619 59.07348633 452.36450195 C65.63043088 442.39766077 72.21325271 432.44931119 78.84375 422.53125 C79.85704928 421.01190442 80.87011797 419.49240499 81.8828125 417.97265625 C82.31053955 417.33199219 82.7382666 416.69132812 83.17895508 416.03125 C84.09365541 414.65720839 85.00457049 413.28064353 85.9128418 411.90234375 C88.92794438 407.34131584 92.02480091 402.85426278 95.19921875 398.40234375 C95.93769043 397.346521 96.67616211 396.29069824 97.43701172 395.20288086 C98.88740713 393.13004402 100.35838386 391.07141725 101.85205078 389.02954102 C106.18331203 382.81764851 106.18331203 382.81764851 106.96484375 375.49609375 C106.64307088 373.83027114 106.26752709 372.1740877 105.84375 370.53125 C105.64821533 369.66322754 105.45268066 368.79520508 105.2512207 367.90087891 C104.5908193 365.11307565 103.85350029 362.35604761 103.09375 359.59375 C102.82570557 358.59375977 102.55766113 357.59376953 102.28149414 356.56347656 C101.73438909 354.52280875 101.18436652 352.48292077 100.63134766 350.44384766 C99.49160297 346.22898276 98.38707709 342.00511058 97.28125 337.78125 C96.87008905 336.21997374 96.45863279 334.65877521 96.046875 333.09765625 C95.26371242 330.12680075 94.48241344 327.15546778 93.703125 324.18359375 C87.51743487 300.60602644 81.19163354 277.06557479 74.84375 253.53125 C73.69743768 249.28137897 72.55153976 245.03139672 71.40625 240.78125 C71.12144775 239.72454102 70.83664551 238.66783203 70.54321289 237.57910156 C68.9536398 231.67484624 67.37229462 225.76846226 65.80078125 219.859375 C65.62903885 219.21361008 65.45729645 218.56784515 65.28034973 217.9025116 C65.10847641 217.25623306 64.93660309 216.60995453 64.75952148 215.9440918 C61.74942397 204.62601931 58.70379639 193.320446 55.54492188 182.04296875 C54.05002588 176.68799313 52.57285729 171.32810349 51.09375 165.96875 C50.75617676 164.74671875 50.41860352 163.5246875 50.07080078 162.265625 C48.21139846 155.52496653 46.36574566 148.78085027 44.5390625 142.03125 C43.76602617 139.17697449 42.99260144 136.32280462 42.21875 133.46875 C42.02854279 132.76709717 41.83833557 132.06544434 41.6423645 131.3425293 C39.16421467 122.21449445 36.57619879 113.13020142 33.80029297 104.08764648 C32.13560621 98.62740373 30.71076325 93.13904141 29.37719727 87.58984375 C28.09133711 82.3231284 26.55824158 77.15108089 24.96875 71.96875 C22.40772169 63.6092284 20.14124098 55.19565155 17.96679688 46.72802734 C16.05442831 39.28891363 14.01452416 31.89911288 11.84375 24.53125 C9.53375 24.53125 7.22375 24.53125 4.84375 24.53125 C4.42303223 25.54807861 4.00231445 26.56490723 3.56884766 27.61254883 C-12.64642018 66.79492583 -29.02329157 105.90768078 -45.53639221 144.96543884 C-48.41334466 151.77098819 -51.2857453 158.57844758 -54.15625 165.38671875 C-65.01460394 191.13757857 -75.94615832 216.85269407 -87.07635498 242.48751831 C-92.14041408 254.15276855 -97.15206727 265.84020754 -102.15625 277.53125 C-107.80094578 290.71863201 -113.46902759 303.89495746 -119.18579102 317.05126953 C-123.46532414 326.91091942 -127.69736343 336.79057845 -131.92449951 346.67279053 C-137.74221473 360.27337392 -143.58495325 373.86133536 -149.53125 387.40625 C-156.62564012 403.56739247 -163.6493605 419.75955838 -170.46875 436.0390625 C-170.82146973 436.88106201 -171.17418945 437.72306152 -171.53759766 438.59057617 C-172.15960343 440.0792637 -172.77942485 441.5688679 -173.39599609 443.05981445 C-175.18489057 447.35140636 -177.09118678 451.57636663 -179.05078125 455.79296875 C-181.98348477 462.11296308 -184.74817351 468.49263972 -187.46875 474.90625 C-190.99537068 483.18197808 -194.54547483 491.44638499 -198.15234375 499.6875 C-198.66945168 500.86903152 -198.66945168 500.86903152 -199.19700623 502.07443237 C-199.90650839 503.69528339 -200.6160373 505.31612269 -201.32559204 506.93695068 C-208.10667685 522.43170361 -214.75123082 537.97798091 -221.29174805 553.57568359 C-225.84776841 564.43905007 -230.45647378 575.27824662 -235.1083374 586.10089111 C-239.36691039 596.00934941 -243.60469449 605.92640362 -247.82421875 615.8515625 C-248.32401749 617.02680481 -248.82381622 618.20204712 -249.33876038 619.41290283 C-251.3451856 624.13117053 -253.35159898 628.84944007 -255.35476685 633.5690918 C-261.78928036 648.72905198 -268.33972762 663.83252433 -274.99481201 678.89691162 C-277.47106904 684.51348261 -279.90854369 690.14677664 -282.34375 695.78125 C-282.86420898 696.98289795 -283.38466797 698.1845459 -283.92089844 699.42260742 C-286.74976658 705.95509458 -289.57058284 712.49101284 -292.38496399 719.02975464 C-293.86155467 722.45967518 -295.33986341 725.88885408 -296.81826782 729.31799316 C-297.54180891 730.99769794 -298.2644495 732.67779091 -298.98617554 734.35827637 C-299.99387834 736.70461129 -301.00445198 739.04969021 -302.015625 741.39453125 C-302.31916397 742.10344009 -302.62270294 742.81234894 -302.93544006 743.54273987 C-305.04245877 748.41745877 -305.04245877 748.41745877 -306.15625 749.53125 C-309.09375 749.71875 -309.09375 749.71875 -312.15625 749.53125 C-312.81625 748.87125 -313.47625 748.21125 -314.15625 747.53125 C-313.82899629 741.7901016 -311.98127375 736.79806237 -309.9453125 731.4609375 C-309.45923271 730.16152473 -309.45923271 730.16152473 -308.96333313 728.83586121 C-307.90934355 726.02341983 -306.84537944 723.21486859 -305.78125 720.40625 C-305.04959858 718.45913323 -304.31856428 716.51178446 -303.58813477 714.56420898 C-299.01414235 702.38394574 -294.38639241 690.22393906 -289.74853516 678.06787109 C-287.28479753 671.58755704 -284.91143725 665.08690172 -282.65625 658.53125 C-278.8446225 647.45285064 -274.64461698 636.52457302 -270.46395874 625.58137512 C-267.79662994 618.59710505 -265.15481522 611.603245 -262.51254272 604.60946655 C-260.07450681 598.15852033 -257.63140374 591.70948963 -255.18933105 585.2600708 C-254.10406306 582.39340136 -253.01930682 579.52653856 -251.93457031 576.65966797 C-235.94082745 534.39881376 -219.5631295 492.3249785 -202.56201172 450.45898438 C-199.05473152 441.82039807 -195.56164664 433.17607589 -192.06842041 424.53179932 C-190.90258851 421.64719041 -189.73626229 418.7627818 -188.56982422 415.87841797 C-184.17635232 405.01287269 -179.79003771 394.14446839 -175.41015625 383.2734375 C-152.86594771 327.32320637 -129.74146355 271.63894178 -106.23687744 216.08569336 C-105.19838815 213.63085835 -104.16038837 211.17581701 -103.12255859 208.72070312 C-96.32298879 192.63734094 -89.47405469 176.57834972 -82.48388672 160.57666016 C-80.1467993 155.2157134 -77.82453088 149.84834085 -75.50079346 144.4815979 C-70.1849289 132.20539685 -64.86517139 119.93090002 -59.52099609 107.66699219 C-58.28375583 104.82421689 -57.04973557 101.98006119 -55.81643677 99.13557434 C-48.78399164 82.9248256 -41.61392885 66.7843043 -34.2109375 50.73901367 C-31.10633627 44.00622131 -28.02362937 37.26782836 -25.04936218 30.47621155 C-23.70696744 27.41138417 -22.35257886 24.35191511 -20.99801636 21.29244995 C-20.36026986 19.84203415 -19.72871298 18.38887887 -19.10379028 16.93289185 C-18.23851121 14.91801306 -17.35213531 12.91367697 -16.4609375 10.91015625 C-15.96577637 9.7713501 -15.47061523 8.63254395 -14.96044922 7.45922852 C-11.23301708 1.41009541 -6.86645382 0.0252046 0 0 Z "
     fill="#FF4500"
     transform="translate(598.15625,37.46875)"
     id="path2" />
  <path
     d="M0 0 C4.99111402 -0.05524735 9.98215628 -0.0955248 14.97348022 -0.12607956 C16.86986946 -0.14024593 18.76622807 -0.15961042 20.6625061 -0.18455887 C23.2830951 -0.21816228 25.90315527 -0.23267718 28.52392578 -0.24279785 C29.29167831 -0.25708706 30.05943085 -0.27137627 30.85044861 -0.28609848 C38.94629131 -0.27529234 44.48509944 2.75620818 50.36767578 8.26257324 C54.57912219 12.63526873 55.32414972 16.38016676 55.60205078 22.31335449 C55.32885064 32.33069295 50.94237684 38.60048764 44.27001953 45.72351074 C40.32538139 49.98087695 36.75391652 54.5551892 33.10205078 59.06335449 C30.55538194 62.18445992 28.00402542 65.30170988 25.45068359 68.4173584 C24.47826186 69.60419173 23.50631498 70.79141417 22.53466797 71.97888184 C18.97862301 76.32276229 15.41135011 80.65706752 11.82910156 84.97937012 C10.7371954 86.29694306 9.64682384 87.6157906 8.55859375 88.93640137 C-2.68197896 102.54083909 -14.88922097 115.28740968 -28.89794922 126.06335449 C-29.89955078 126.87030762 -30.90115234 127.67726074 -31.93310547 128.50866699 C-54.00726652 146.17070681 -80.27414898 158.2251733 -107.89794922 164.06335449 C-108.967146 164.29095459 -110.03634277 164.51855469 -111.13793945 164.75305176 C-120.5328307 166.69658781 -129.95366443 168.2215961 -139.46044922 169.50085449 C-140.23519592 169.60596344 -141.00994263 169.71107239 -141.8081665 169.81936646 C-162.2772385 172.56812346 -182.8404359 174.27844125 -203.42687988 175.87127686 C-205.6255567 176.04218127 -207.82381796 176.21742914 -210.02197266 176.39489746 C-218.97342779 177.10512129 -227.93033126 177.61412826 -236.89794922 178.06335449 C-237.7241917 178.10484304 -238.55043419 178.1463316 -239.40171432 178.18907738 C-288.52695394 180.6074142 -337.68164599 180.37207631 -386.85239387 180.32049215 C-394.81128123 180.31300756 -402.77011845 180.31562381 -410.72900391 180.32409668 C-457.43860949 180.37251251 -504.12930462 180.24340973 -550.82763672 179.13366699 C-552.1626345 179.10233531 -552.1626345 179.10233531 -553.52460194 179.07037067 C-580.05062738 178.44483521 -606.51625925 177.42907125 -632.98339844 175.48864746 C-638.26303756 175.1037073 -643.54462115 174.75603379 -648.82727051 174.41519165 C-692.86212543 171.56942026 -736.73237637 167.30806985 -780.52294922 161.87585449 C-781.49893066 161.75542786 -782.47491211 161.63500122 -783.48046875 161.51092529 C-794.10609772 160.19043455 -804.65440835 158.66597672 -815.18652344 156.73498535 C-819.99321668 155.86515157 -824.81344698 155.13351168 -829.64794922 154.43835449 C-839.52388505 153.00573417 -839.52388505 153.00573417 -843.89794922 152.06335449 C-841.57639701 149.74180228 -841.04544373 149.77509321 -837.89599609 149.57678223 C-837.06491333 149.52009872 -836.23383057 149.46341522 -835.37756348 149.40501404 C-834.46647827 149.35285233 -833.55539307 149.30069061 -832.61669922 149.24694824 C-831.6569519 149.18556168 -830.69720459 149.12417511 -829.70837402 149.06092834 C-827.65058466 148.93138998 -825.59250133 148.80645496 -823.53417969 148.68566895 C-820.5205166 148.50807725 -817.50815177 148.31550772 -814.49560547 148.11999512 C-778.74050049 145.87079396 -742.9598575 145.90576324 -707.15090179 145.8641243 C-698.05120549 145.85351624 -688.95154276 145.83292024 -679.85186768 145.81100464 C-676.69958125 145.80352914 -673.54729469 145.79611432 -670.39500809 145.78871727 C-669.21374823 145.78594142 -669.21374823 145.78594142 -668.00862454 145.78310949 C-659.1030837 145.76230864 -650.19753916 145.74343416 -641.29199219 145.72546387 C-640.076183 145.72300659 -640.076183 145.72300659 -638.835812 145.72049968 C-627.45462581 145.69771257 -616.07343923 145.67993898 -604.69224007 145.6651422 C-497.25956257 145.6397604 -497.25956257 145.6397604 -389.89794922 142.06335449 C-388.65403412 142.00000412 -387.41011902 141.93665375 -386.12850952 141.87138367 C-372.53570622 141.16737324 -358.95776649 140.31269362 -345.3834877 139.31581497 C-340.71936182 138.97642155 -336.05403592 138.65412326 -331.38891602 138.32873535 C-323.25010888 137.75851809 -315.11249167 137.17325139 -306.97546101 136.57826138 C-300.82612258 136.1291065 -294.67585181 135.69535456 -288.52505493 135.26660156 C-201.02315108 130.00134425 -201.02315108 130.00134425 -114.89794922 115.06335449 C-113.77549805 114.80183594 -113.77549805 114.80183594 -112.63037109 114.53503418 C-88.90912292 108.91118432 -68.51877361 96.28614908 -50.38525391 80.36706543 C-49.0256355 79.1752791 -47.65379803 77.99746974 -46.28076172 76.82116699 C-41.53186592 72.67915883 -37.11914837 68.30240729 -32.83544922 63.68835449 C-32.14793579 62.94899658 -32.14793579 62.94899658 -31.4465332 62.19470215 C-28.23684973 58.678025 -25.2104098 55.02749766 -22.20092773 51.33825684 C-21.39406021 50.34981781 -20.58719269 49.36137878 -19.75587463 48.34298706 C-19.14275925 47.59070831 -18.52964386 46.83842957 -17.89794922 46.06335449 C-19.13490964 46.04292808 -19.13490964 46.04292808 -20.39685917 46.022089 C-47.08478399 45.58118453 -73.77264267 45.13636089 -100.46044922 44.68835449 C-101.47599034 44.67131124 -102.49153147 44.65426798 -103.53784657 44.63670826 C-201.90520899 42.98541131 -201.90520899 42.98541131 -249.77294922 41.93835449 C-251.65553758 41.89735343 -253.53812628 41.85636825 -255.42071533 41.81539917 C-262.39436317 41.66348006 -269.36799781 41.51096524 -276.34161377 41.35758972 C-331.67517378 40.14274719 -387.01739297 39.54276987 -442.36179352 39.08467102 C-444.6912967 39.06509142 -447.02078955 39.04463029 -449.35028076 39.02368164 C-517.38876777 38.41537171 -585.45593251 40.16505975 -653.47985673 41.45006442 C-704.47208939 42.41288238 -755.4648444 43.30022886 -806.46044922 44.06335449 C-807.84742468 44.08412825 -809.23440012 44.10490262 -810.62137556 44.12567759 C-832.42097669 44.45207287 -854.220649 44.77362538 -876.02033043 45.09460449 C-895.71168025 45.38455246 -915.40301247 45.67562914 -935.09429514 45.97010553 C-939.24446078 46.03215931 -943.39462959 46.09399504 -947.54480088 46.15567005 C-977.26243927 46.59746701 -1006.97924816 47.06707686 -1036.69482422 47.63366699 C-1038.54924731 47.66883045 -1038.54924731 47.66883045 -1040.4411335 47.70470428 C-1052.09025952 47.92566454 -1063.73930473 48.14935282 -1075.38805866 48.38919449 C-1104.89481489 48.99300303 -1134.38522376 49.17364891 -1163.89794922 49.06335449 C-1163.89794922 48.73335449 -1163.89794922 48.40335449 -1163.89794922 48.06335449 C-1157.18109792 47.09581998 -1150.47268903 46.69456527 -1143.69830894 46.33853531 C-1141.6015234 46.22826542 -1139.50495264 46.11448336 -1137.40840149 45.99984741 C-1134.38324965 45.83466025 -1131.35803463 45.6707118 -1128.33276367 45.50772095 C-1104.17667431 44.2036921 -1080.03119254 42.80537106 -1055.89794922 41.12585449 C-1033.11331215 39.54331671 -1010.32466822 38.04438106 -987.53082275 36.60129929 C-985.01978342 36.44211589 -982.50878643 36.28228137 -979.99780273 36.1222229 C-961.84031542 34.96543166 -943.68138304 33.86949674 -925.51401711 32.87929726 C-914.53273402 32.27976768 -903.56085355 31.60104708 -892.59213257 30.80239868 C-859.16686555 28.38808035 -825.69074869 26.80160786 -792.22216797 25.12585449 C-786.4177991 24.83506634 -780.6134384 24.5441158 -774.80908585 24.25300217 C-773.11548286 24.16809441 -771.42187679 24.08324811 -769.72826767 23.99846268 C-745.44549689 22.78270262 -721.16985407 21.47922285 -696.89794922 20.06335449 C-671.77814638 18.59802517 -646.6540327 17.25806853 -621.52294922 16.00085449 C-620.2699918 15.93813732 -620.2699918 15.93813732 -618.99172211 15.87415314 C-614.83138884 15.66590918 -610.67105026 15.45777138 -606.51071167 15.24963379 C-605.70081661 15.20910889 -604.89092155 15.16858398 -604.05648422 15.12683105 C-602.43391929 15.0456489 -600.81135307 14.96449236 -599.18878555 14.88336182 C-583.46529212 14.09680009 -567.74365957 13.27884323 -552.02294922 12.43835449 C-550.95812317 12.38186737 -549.89329712 12.32538025 -548.79620361 12.2671814 C-545.7284816 12.10424577 -542.6608553 11.93962679 -539.59326172 11.77429199 C-538.57011871 11.71965286 -537.54697571 11.66501373 -536.49282837 11.60871887 C-531.07603298 11.31357988 -525.66393828 10.98389095 -520.25244141 10.60339355 C-491.67732037 8.64154997 -463.04198089 7.99950817 -434.41617584 7.191185 C-430.61161321 7.08372701 -426.80708855 6.97498501 -423.0025748 6.86581147 C-365.97353574 5.22943272 -308.94445775 3.921854 -251.89794922 3.06335449 C-251.22978683 3.0532903 -250.56162445 3.04322611 -249.87321472 3.03285694 C-183.89933223 2.03984903 -117.92343788 1.15354462 -51.94557953 0.47005081 C-48.97691866 0.4391758 -46.00826498 0.40767416 -43.03961182 0.37606812 C-33.28996708 0.27331888 -23.54039649 0.18310054 -13.79040718 0.12020397 C-9.19345843 0.0899019 -4.59676966 0.05097687 0 0 Z "
     fill="#FF4500"
     transform="translate(1195.89794921875,1524.9366455078125)"
     id="path3" />
  <path
     d="M0 0 C1.65 0 3.3 0 5 0 C5.33 8.58 5.66 17.16 6 26 C6.66 23.69 7.32 21.38 8 19 C9.65 19 11.3 19 13 19 C12.34 23.29 11.68 27.58 11 32 C17.93 18.635 17.93 18.635 25 5 C26.65 5.66 28.3 6.32 30 7 C28.36036204 12.94615694 25.37624538 18.03522078 22.375 23.375 C21.859375 24.30183594 21.34375 25.22867188 20.8125 26.18359375 C19.54617189 28.45829425 18.27524075 30.73028792 17 33 C17.33 33.33 17.66 33.66 18 34 C21.465 30.04 21.465 30.04 25 26 C26.98 27.98 26.98 27.98 29 30 C26.36 32.97 23.72 35.94 21 39 C23.63976981 39 24.89998692 38.0330702 27.17578125 36.69921875 C28.00400391 36.21646484 28.83222656 35.73371094 29.68554688 35.23632812 C30.55244141 34.72521484 31.41933594 34.21410156 32.3125 33.6875 C33.59543945 32.93823242 33.59543945 32.93823242 34.90429688 32.17382812 C35.73638672 31.68720703 36.56847656 31.20058594 37.42578125 30.69921875 C38.62581787 29.99804932 38.62581787 29.99804932 39.85009766 29.28271484 C41.56589953 28.25900112 43.24835442 27.17946182 44.91796875 26.08203125 C45.60503906 25.72496094 46.29210937 25.36789062 47 25 C47.99 25.33 48.98 25.66 50 26 C50.33 26.99 50.66 27.98 51 29 C49.10416667 30.16666667 47.20833333 31.33333333 45.3125 32.5 C44.73467773 32.85658691 44.15685547 33.21317383 43.56152344 33.58056641 C40.47597326 35.4834057 37.38434068 37.37453986 34.27734375 39.2421875 C33.39018677 39.77875977 33.39018677 39.77875977 32.48510742 40.32617188 C30.82011928 41.33261469 29.15230668 42.33438044 27.484375 43.3359375 C24.91323874 44.76164729 24.91323874 44.76164729 24 47 C24.67546875 46.7834375 25.3509375 46.566875 26.046875 46.34375 C26.93890625 46.0653125 27.8309375 45.786875 28.75 45.5 C29.63171875 45.2215625 30.5134375 44.943125 31.421875 44.65625 C34 44 34 44 38 44 C38.33 45.65 38.66 47.3 39 49 C30.57142857 51.28571429 30.57142857 51.28571429 26 51 C26 51.66 26 52.32 26 53 C36.23 53 46.46 53 57 53 C57 54.32 57 55.64 57 57 C46.44 57 35.88 57 25 57 C25 57.99 25 58.98 25 60 C26.01320313 60.19916016 26.01320313 60.19916016 27.046875 60.40234375 C27.93890625 60.57894531 28.8309375 60.75554688 29.75 60.9375 C30.63171875 61.11152344 31.5134375 61.28554688 32.421875 61.46484375 C34.63235053 61.92368488 36.81512068 62.43336074 39 63 C38.67 64.65 38.34 66.3 38 68 C36 67.66666667 34 67.33333333 32 67 C29.03 66.505 29.03 66.505 26 66 C33.92 70.95 41.84 75.9 50 81 C49.34 82.65 48.68 84.3 48 86 C40.97925083 82.34634482 34.27714831 78.35362991 27.68505859 73.98461914 C25.12876895 72.30284964 22.91934795 70.97311598 20 70 C20.66128906 70.75925781 21.32257813 71.51851562 22.00390625 72.30078125 C22.84824219 73.29464844 23.69257812 74.28851562 24.5625 75.3125 C25.40941406 76.29863281 26.25632812 77.28476562 27.12890625 78.30078125 C27.74636719 79.19152344 28.36382813 80.08226562 29 81 C28.67 81.99 28.34 82.98 28 84 C27.01 84.33 26.02 84.66 25 85 C22.36 82.03 19.72 79.06 17 76 C17.51949219 76.96679688 18.03898438 77.93359375 18.57421875 78.9296875 C30 100.23789231 30 100.23789231 30 103 C27.525 103.495 27.525 103.495 25 104 C20.38 95.42 15.76 86.84 11 78 C11.99 82.95 11.99 82.95 13 88 C13 89.32 13 90.64 13 92 C11.35 92 9.7 92 8 92 C7.01 88.04 7.01 88.04 6 84 C5.67 92.58 5.34 101.16 5 110 C3.35 110 1.7 110 0 110 C-0.33 100.76 -0.66 91.52 -1 82 C-1.66 84.97 -2.32 87.94 -3 91 C-5.475 91.495 -5.475 91.495 -8 92 C-7.22095672 81.44191344 -7.22095672 81.44191344 -5 77 C-5.66 77 -6.32 77 -7 77 C-7.27183105 77.71115967 -7.54366211 78.42231934 -7.82373047 79.1550293 C-9.01607225 82.03887296 -10.36967909 84.75715487 -11.8203125 87.51953125 C-12.35527344 88.54111328 -12.89023437 89.56269531 -13.44140625 90.61523438 C-13.99699219 91.67033203 -14.55257812 92.72542969 -15.125 93.8125 C-15.68832031 94.88693359 -16.25164062 95.96136719 -16.83203125 97.06835938 C-18.21919818 99.71338105 -19.6085894 102.35720895 -21 105 C-22.32 104.34 -23.64 103.68 -25 103 C-24.4133247 99.24936435 -23.35059992 96.440724 -21.49609375 93.13671875 C-21.00302734 92.25048828 -20.50996094 91.36425781 -20.00195312 90.45117188 C-19.48568359 89.53916016 -18.96941406 88.62714844 -18.4375 87.6875 C-17.91736328 86.75615234 -17.39722656 85.82480469 -16.86132812 84.86523438 C-15.58023026 82.57336205 -14.29297895 80.28518387 -13 78 C-15.90802461 80.21928194 -17.95312762 81.92969143 -20 85 C-21.32 84.34 -22.64 83.68 -24 83 C-23.43337571 79.37679679 -22.10912999 77.82534347 -19.4375 75.375 C-18.25665005 74.28681232 -17.10189664 73.16806798 -16 72 C-16 71.34 -16 70.68 -16 70 C-19.66942861 71.37061399 -22.93859497 73.03354788 -26.30078125 75.0390625 C-27.27724609 75.61914062 -28.25371094 76.19921875 -29.25976562 76.796875 C-30.26716797 77.40015625 -31.27457031 78.0034375 -32.3125 78.625 C-33.33923828 79.23601562 -34.36597656 79.84703125 -35.42382812 80.4765625 C-37.95113875 81.98119394 -40.47643399 83.4890994 -43 85 C-44.5 83.625 -44.5 83.625 -46 82 C-46 81.34 -46 80.68 -46 80 C-43.82861328 78.50366211 -43.82861328 78.50366211 -40.8203125 76.77734375 C-39.74652344 76.15666016 -38.67273438 75.53597656 -37.56640625 74.89648438 C-36.43074219 74.25001953 -35.29507813 73.60355469 -34.125 72.9375 C-32.99707031 72.28716797 -31.86914062 71.63683594 -30.70703125 70.96679688 C-22.57862103 66.28931052 -22.57862103 66.28931052 -20 65 C-20.88751953 65.2165625 -20.88751953 65.2165625 -21.79296875 65.4375 C-25.92529941 66.40822694 -29.7229762 67.27593702 -34 67 C-34 65.35 -34 63.7 -34 62 C-29.71 61.01 -25.42 60.02 -21 59 C-21 58.34 -21 57.68 -21 57 C-70.83 57 -120.66 57 -172 57 C-172 55.35 -172 53.7 -172 52 C-123.49 51.67 -74.98 51.34 -25 51 C-27.97 50.01 -30.94 49.02 -34 48 C-34 46.35 -34 44.7 -34 43 C-28.94468132 43.77774134 -23.98283716 44.85948394 -19 46 C-19 45.34 -19 44.68 -19 44 C-19.7209082 43.73123047 -20.44181641 43.46246094 -21.18457031 43.18554688 C-26.00711226 41.15482682 -30.3158688 38.25861603 -34.75 35.5 C-35.72066406 34.90574219 -36.69132813 34.31148437 -37.69140625 33.69921875 C-38.61308594 33.12816406 -39.53476562 32.55710937 -40.484375 31.96875 C-41.32709961 31.44732422 -42.16982422 30.92589844 -43.03808594 30.38867188 C-45 29 -45 29 -46 27 C-45.01 25.515 -45.01 25.515 -44 24 C-40.36707683 25.34847736 -37.20068097 26.98484994 -33.91796875 29.0390625 C-32.98662109 29.61914062 -32.05527344 30.19921875 -31.09570312 30.796875 C-30.13599609 31.40015625 -29.17628906 32.0034375 -28.1875 32.625 C-27.20845703 33.23601563 -26.22941406 33.84703125 -25.22070312 34.4765625 C-22.81154528 35.98081715 -20.40475932 37.4887274 -18 39 C-19.32058431 36.28028361 -20.64589469 34.04159562 -22.625 31.75 C-23.800625 30.38875 -23.800625 30.38875 -25 29 C-24.34 28.34 -23.68 27.68 -23 27 C-20.38410267 27.21181355 -19.25147184 27.75454424 -17.3671875 29.59375 C-16.87476563 30.2228125 -16.38234375 30.851875 -15.875 31.5 C-13.80112319 34.1880384 -13.80112319 34.1880384 -11 36 C-11.34780518 35.33468262 -11.69561035 34.66936523 -12.05395508 33.98388672 C-13.64068394 30.94787678 -15.22659902 27.91144247 -16.8125 24.875 C-17.63331055 23.30492187 -17.63331055 23.30492187 -18.47070312 21.703125 C-21.01991618 16.82099575 -23.56425653 11.93985869 -26 7 C-23.525 6.01 -23.525 6.01 -21 5 C-16.11965121 13.56984995 -11.30123074 22.12003975 -7 31 C-7.33 27.04 -7.66 23.08 -8 19 C-6.35 19.33 -4.7 19.66 -3 20 C-2.01 23.96 -2.01 23.96 -1 28 C-0.67 18.76 -0.34 9.52 0 0 Z "
     fill="#FF4500"
     id="path4"
     transform="translate(708,682)" />
</svg>
