<?xml version="1.0" encoding="UTF-8" standalone="no"?>
<svg
   version="1.1"
   width="2000"
   height="2000"
   id="svg67"
   sodipodi:docname="Lasercata_logo_light.svg"
   xml:space="preserve"
   inkscape:version="1.4.3 (0d15f75042, 2025-12-25)"
   xmlns:inkscape="http://www.inkscape.org/namespaces/inkscape"
   xmlns:sodipodi="http://sodipodi.sourceforge.net/DTD/sodipodi-0.dtd"
   xmlns="http://www.w3.org/2000/svg"
   xmlns:svg="http://www.w3.org/2000/svg"><defs
     id="defs67" /><sodipodi:namedview
     id="namedview67"
     pagecolor="#ffffff"
     bordercolor="#000000"
     borderopacity="0.25"
     inkscape:showpageshadow="2"
     inkscape:pageopacity="0.0"
     inkscape:pagecheckerboard="0"
     inkscape:deskcolor="#d1d1d1"
     inkscape:zoom="0.59538391"
     inkscape:cx="900.25946"
     inkscape:cy="1160.5957"
     inkscape:window-width="1896"
     inkscape:window-height="1101"
     inkscape:window-x="1450"
     inkscape:window-y="87"
     inkscape:window-maximized="1"
     inkscape:current-layer="layer3" /><g
     inkscape:groupmode="layer"
     id="layer3"
     inkscape:label="fly"><path
       d="M0 0 C2.24366999 3.83617625 3.11310302 8.0189325 4.13671875 12.296875 C4.54970208 13.98342357 4.9627922 15.66994599 5.37597656 17.35644531 C5.59000122 18.23739868 5.80402588 19.11835205 6.02453613 20.02600098 C9.73651766 35.27786394 13.63893299 50.42169695 18.22070312 65.43847656 C18.99831316 67.9944554 19.75938528 70.55481163 20.515625 73.1171875 C23.38045847 82.80077489 26.37770061 92.43820765 29.46484375 102.05322266 C30.96029367 106.71232879 32.42647268 111.37846315 33.85571289 116.05834961 C35.84827839 122.54143463 37.91676595 128.99723669 40.01953125 135.4453125 C40.58231277 137.1733033 40.58231277 137.1733033 41.15646362 138.936203 C42.37291391 142.66653285 43.59194813 146.39601074 44.8125 150.125 C45.02212498 150.76563259 45.23174995 151.40626518 45.4477272 152.06631088 C53.04613081 175.28017849 60.913687 198.38779439 69.08184814 221.40765381 C70.32599173 224.92041793 71.56212057 228.43598231 72.79852295 231.95147705 C89.43401452 279.23056204 106.94122928 326.18881159 124.85217285 372.9979248 C126.37709244 376.98626335 127.8980125 380.97612137 129.41880798 384.96603394 C130.9373041 388.94887092 132.45783609 392.93092853 133.97891235 396.91278076 C134.66573911 398.71113836 135.35213262 400.50966152 136.03793335 402.30841064 C150.27991993 439.64492772 165.04417174 476.78026703 179.8984375 513.87646484 C182.08977692 519.34903911 184.27794008 524.82287723 186.46524811 530.29706383 C188.19717171 534.63052512 189.93076976 538.9633151 191.6648407 543.29591751 C192.47208285 545.31337049 193.27884147 547.33101704 194.08503723 549.3488884 C198.4262549 560.21198396 202.82429422 571.04923054 207.31835938 581.85009766 C207.72666237 582.83213354 208.13496536 583.81416943 208.55564117 584.82596397 C210.72366261 590.01727717 212.95772168 595.15286025 215.38724518 600.22792625 C215.58945427 600.81271059 215.79166336 601.39749493 216 602 C215.67 602.66 215.34 603.32 215 604 C184.71599113 571.87143047 184.71599113 571.87143047 178 564 C177.11353572 562.96722944 176.22678965 561.93470072 175.33984375 560.90234375 C173.28349779 558.50772736 171.23066532 556.11015261 169.1796875 553.7109375 C167.11029302 551.2917862 165.03222693 548.88061267 162.9453125 546.4765625 C157.53648957 540.2334558 152.27863891 533.91095684 147.21240234 527.38623047 C144.26412177 523.59227826 141.26008499 519.85148289 138.21264648 516.13671875 C131.21721611 507.60848287 124.52279349 498.89414454 118 490 C117.49533203 489.31244629 116.99066406 488.62489258 116.47070312 487.91650391 C97.32046966 461.75699521 79.24846644 435.05974675 63 407 C62.39317383 405.95908203 61.78634766 404.91816406 61.16113281 403.84570312 C20.22359814 333.56505098 -24.15989894 252.43263263 -36.23828125 153.0234375 C-36.24798447 152.18765671 -36.25768768 151.35187592 -36.26768494 150.49076843 C-36.29256645 147.78546276 -36.30521785 145.08040872 -36.3125 142.375 C-36.31511841 141.4467038 -36.31773682 140.51840759 -36.32043457 139.5619812 C-36.32559554 122.39971813 -34.94794909 105.9226378 -32 89 C-31.84515137 88.08331543 -31.69030273 87.16663086 -31.53076172 86.22216797 C-27.32505724 62.00792923 -18.6311688 38.63385309 -8.8125 16.1875 C-8.5038501 15.47682373 -8.1952002 14.76614746 -7.87719727 14.03393555 C-5.6559361 9.07691043 -2.97912746 4.53879276 0 0 Z "
       fill="#FD4400"
       transform="translate(213,459)"
       id="path4" /><path
       d="M0 0 C3.34593753 3.22975915 6.25600319 6.49844187 9 10.25 C9.77859375 11.30316406 10.5571875 12.35632813 11.359375 13.44140625 C11.99262695 14.29822998 11.99262695 14.29822998 12.63867188 15.17236328 C15.14355443 18.53526694 17.69894352 21.85957233 20.25 25.1875 C21.07661133 26.26692871 21.07661133 26.26692871 21.91992188 27.36816406 C23.04994647 28.84372797 24.18015603 30.31915025 25.31054688 31.79443359 C28.04266823 35.36119434 30.77117759 38.93071514 33.5 42.5 C34.57941504 43.91146754 35.65884215 45.32292586 36.73828125 46.734375 C38.9445186 49.61940356 41.15018282 52.50486913 43.35546875 55.390625 C48.22870225 61.76681836 53.1042552 68.14106814 58 74.5 C63.45908318 81.59063469 68.893078 88.70036158 74.32666016 95.81054688 C77.05033264 99.37428992 79.77521663 102.93710631 82.5 106.5 C83.58333938 107.91666204 84.66667271 109.33332872 85.75 110.75 C86.28625 111.45125 86.8225 112.1525 87.375 112.875 C131.25 170.25000001 131.25 170.25000001 132.87573242 172.37597656 C133.95660017 173.78940651 135.03749201 175.20281804 136.1184082 176.61621094 C138.86466505 180.20724701 141.61047303 183.7986248 144.35546875 187.390625 C149.22870225 193.76681836 154.1042552 200.14106814 159 206.5 C164.45908318 213.59063469 169.893078 220.70036158 175.32666016 227.81054688 C177.51083614 230.66839488 179.69580481 233.52563621 181.88085938 236.3828125 C183.50790952 238.51034249 185.13481377 240.637984 186.76171875 242.765625 C188.88881618 245.54726307 191.01645086 248.32848888 193.14453125 251.109375 C199.10518778 258.89953997 205.0568043 266.69650409 211 274.5 C222.05428857 289.01378593 233.13617158 303.50591031 244.27734375 317.953125 C246.33895891 320.6287653 248.39663314 323.30735448 250.45263672 325.98730469 C251.59550436 327.47386209 252.7407157 328.95861835 253.88720703 330.44238281 C255.99164876 333.16660189 258.08982663 335.89556697 260.1875 338.625 C260.85281738 339.48351563 261.51813477 340.34203125 262.20361328 341.2265625 C266.23470984 346.48512446 269.89922276 351.86708886 273.40795898 357.48681641 C275.45809018 360.72313761 277.66915499 363.78763524 279.9375 366.875 C293 384.91597115 293 384.91597115 293 390 C289.96273042 388.63389732 287.79084974 387.06926193 285.390625 384.76953125 C284.71773438 384.13080078 284.04484375 383.49207031 283.3515625 382.83398438 C282.31128906 381.83334961 282.31128906 381.83334961 281.25 380.8125 C276.53630912 376.30940177 271.78354353 371.88944833 266.85742188 367.61889648 C264.23561535 365.33377568 261.68142201 362.98313997 259.125 360.625 C253.78480833 355.71080652 248.40202801 350.84619233 243 346 C241.33307353 344.50028872 239.66640851 343.00028679 238 341.5 C237.175 340.7575 236.35 340.015 235.5 339.25 C226.33333333 331 217.16666667 322.75 208 314.5 C207.17757812 313.76007813 206.35515625 313.02015625 205.5078125 312.2578125 C203.81407106 310.73291756 202.12138831 309.20684598 200.4296875 307.6796875 C196.66262885 304.28127068 192.89084414 300.8918339 189.0625 297.5625 C184.86419058 293.9070023 180.76068087 290.15015543 176.6484375 286.3984375 C174.49428693 284.44762857 172.32281531 282.52606388 170.125 280.625 C165.97841603 277.02223032 161.95887996 273.28682142 157.92944336 269.55444336 C151.73905894 263.82373651 145.49401898 258.15702264 139.125 252.625 C134.18599923 248.32073025 129.3792613 243.87218762 124.56005859 239.43505859 C122.55681282 237.59232328 120.54919138 235.75439687 118.54150391 233.91650391 C114.36503893 230.09301847 110.19725267 226.26046782 106.04052734 222.41552734 C100.89664372 217.65769889 95.72361572 212.93694144 90.5078125 208.2578125 C82.99871541 201.49728584 75.58436117 194.63287156 68.1875 187.75 C67.57753174 187.18385986 66.96756348 186.61771973 66.33911133 186.03442383 C63.27116351 183.17331332 60.25662066 180.2739568 57.30078125 177.296875 C54.94519266 174.92513644 52.55515039 172.65866153 50 170.5 C46.80103895 167.74397201 43.82193486 164.84802178 40.86694336 161.8347168 C39.10478027 160.10297158 37.29040371 158.49615008 35.41015625 156.89453125 C30.38780796 152.52380579 25.65818524 147.87972595 20.9375 143.1875 C20.07833984 142.34896484 19.21917969 141.51042969 18.33398438 140.64648438 C10.67525972 133.03456629 4.55062625 124.8987934 -0.1875 115.1875 C-0.52281738 114.50228271 -0.85813477 113.81706543 -1.20361328 113.11108398 C-17.22659751 79.52519368 -10.95685231 35.51708801 -1 1 C-0.67 0.67 -0.34 0.34 0 0 Z "
       fill="#FD4400"
       transform="translate(91,731)"
       id="path5" /><path
       d="M0 0 C3.63777613 1.3481984 6.79160058 2.9860277 10.0703125 5.0546875 C11.0394458 5.6633667 12.0085791 6.2720459 13.00708008 6.89916992 C14.03599365 7.55119385 15.06490723 8.20321777 16.125 8.875 C17.19451904 9.54829346 18.26403809 10.22158691 19.3659668 10.9152832 C22.57976111 12.93966969 25.79011516 14.96942208 29 17 C30.71203358 18.07975378 32.42425562 19.15920885 34.13671875 20.23828125 C37.99543078 22.67113759 41.85105819 25.10882993 45.70556641 27.54833984 C49.63545962 30.03473536 53.56789949 32.51709734 57.5 35 C59.0872435 36.00259797 60.67448309 37.00520212 62.26171875 38.0078125 C65.38867486 39.98279978 68.51632383 41.95668286 71.64453125 43.9296875 C84.72330422 52.18057815 97.76918107 60.48269472 110.81152344 68.79101562 C122.75030021 76.39559673 134.70076944 83.98095718 146.67333984 91.53222656 C150.61660245 94.01983357 154.55820768 96.51006414 158.5 99 C160.0833256 100.00001224 161.66665893 101.00001225 163.25 102 C172.75 108 182.25 114 191.75 120 C192.5335083 120.49483887 193.3170166 120.98967773 194.12426758 121.49951172 C195.71007325 122.50109035 197.29584791 123.50271808 198.8815918 124.50439453 C202.80184757 126.98064184 206.72261107 129.45607701 210.64453125 131.9296875 C219.10764481 137.26883297 227.5598959 142.62454506 236 148 C245.98490065 154.35742413 255.97482721 160.70621529 266 167 C266.81758789 167.51385254 267.63517578 168.02770508 268.47753906 168.55712891 C278.67359035 174.95376394 288.95153998 181.16792731 299.375 187.1875 C306.33899993 191.21512836 313.23496441 195.29789652 319.9375 199.75 C320.55222168 200.15629639 321.16694336 200.56259277 321.80029297 200.98120117 C325.86962571 203.73925142 325.86962571 203.73925142 327 206 C322.17051548 205.42015406 317.8004432 204.43565638 313.18652344 202.90551758 C312.54161233 202.69346522 311.89670122 202.48141287 311.23224735 202.26293468 C309.10608369 201.56233141 306.9827778 200.85345362 304.859375 200.14453125 C303.35122617 199.6458662 301.84289592 199.14774956 300.33439636 198.65014648 C297.1341539 197.5933248 293.93512323 196.5329428 290.73703003 195.46963501 C285.71016441 193.79835756 280.6806741 192.13508606 275.65063477 190.47338867 C270.64449755 188.81928018 265.63845333 187.16489888 260.63331604 185.50776672 C249.54206249 181.83588586 238.44234963 178.19141744 227.3286438 174.58798218 C223.25203975 173.2658811 219.17685132 171.93942981 215.1015625 170.61328125 C214.26192459 170.34006546 213.42228668 170.06684967 212.5572052 169.78535461 C209.70475238 168.85705998 206.85237554 167.92853207 204 167 C202.83142456 166.61970642 201.66284912 166.23941284 200.4588623 165.84759521 C132.28726679 143.65905867 132.28726679 143.65905867 100 132 C98.56699554 131.48409302 98.56699554 131.48409302 97.1050415 130.95776367 C90.82256252 128.695494 84.54528397 126.41949811 78.27374268 124.1270752 C76.24775457 123.38719788 74.22088389 122.64973194 72.1930542 121.91491699 C46.54474786 112.60400571 26.36767204 100.4323308 14.0546875 75.10546875 C2.90651041 51.08397788 -0.91094437 26.37884673 0 0 Z "
       fill="#FC4400"
       transform="translate(40,953)"
       id="path7" /><path
       d="M0 0 C8.58055932 1.23201776 17.03535482 2.76158275 25.5 4.625 C27.96744303 5.16148079 30.43489122 5.69793788 32.90234375 6.234375 C34.22249866 6.5227628 35.54264829 6.81117474 36.86279297 7.09960938 C41.1783399 8.04084604 45.49721686 8.96627212 49.81640625 9.890625 C65.85937039 13.32888643 81.87329672 16.86570287 97.8581543 20.56481934 C109.44236992 23.24065961 121.06032965 25.70166881 132.71295166 28.06027222 C142.02939044 29.94722526 151.30919884 31.94560776 160.5625 34.125 C169.63161157 36.25972507 178.71971171 38.1826783 187.86279297 39.97192383 C197.95089292 41.95930278 207.9944874 44.13672217 218.04043579 46.32504272 C228.70978534 48.6487966 239.38680109 50.92928434 250.07617188 53.15917969 C257.72140165 54.75417056 265.36193959 56.37104896 273 58 C274.11938965 58.2381543 275.2387793 58.47630859 276.39208984 58.72167969 C309.84113286 65.93179462 309.84113286 65.93179462 322 75 C322.33 75.66 322.66 76.32 323 77 C307.34474731 78.06752267 291.68647345 78.34606813 276 78.5625 C275.27819046 78.57284019 274.55638092 78.58318039 273.81269836 78.59383392 C239.66974796 79.08181087 205.52382087 79.10968362 171.37803602 79.12211341 C166.96964349 79.12375322 162.56125465 79.12670886 158.15286374 79.13081557 C150.38471023 79.13802491 142.61658212 79.13927137 134.84842682 79.13438225 C132.23139713 79.13335241 129.61436626 79.13388545 126.99733734 79.13614082 C115.2641949 79.14448848 103.54316371 79.13396356 91.82128906 78.56982422 C90.66347239 78.51488391 90.66347239 78.51488391 89.48226547 78.45883369 C65.21290903 77.11023326 47.20994305 67.93950109 30 51 C28.95585938 49.99259766 28.95585938 49.99259766 27.890625 48.96484375 C15.17888348 35.75408758 5.65328578 17.32443782 0 0 Z "
       fill="#FD4400"
       transform="translate(52,1144)"
       id="path13" /><path
       d="M0 0 C1.35221174 0.00506446 2.70442548 0.00961799 4.05664062 0.01367188 C7.22531874 0.02502914 10.39387665 0.04113702 13.5625 0.0625 C-16.84472392 24.64380203 -56.4259863 42.56057496 -94.4375 51.0625 C-95.15260742 51.22621094 -95.86771484 51.38992188 -96.60449219 51.55859375 C-125.72007501 57.99621005 -157.20367238 54.55144022 -182.85131836 38.86791992 C-194.44785509 31.38662928 -204.16632761 22.06721551 -212.4375 11.0625 C-213.17613281 10.175625 -213.91476563 9.28875 -214.67578125 8.375 C-216.4375 6.0625 -216.4375 6.0625 -216.4375 4.0625 C-201.93760685 3.74498051 -187.43759627 3.43310233 -172.9375 3.125 C-171.85435139 3.10195423 -170.77120277 3.07890846 -169.65523148 3.05516434 C-146.14484689 2.55575311 -122.63470956 2.06244635 -99.12109375 1.7421875 C-97.89913992 1.7255433 -97.89913992 1.7255433 -96.65250015 1.70856285 C-89.09236272 1.60666644 -81.53216348 1.51201196 -73.97180843 1.4277935 C-58.67140374 1.25620218 -43.38881842 0.93308171 -28.09738159 0.40258789 C-18.7251428 0.08379344 -9.3773478 -0.06446617 0 0 Z "
       fill="#FC4400"
       transform="translate(370.4375,1275.9375)"
       id="path18" /><path
       d="M0 0 C-5.89007653 7.08263862 -12.37892278 13.56508181 -18.88671875 20.07202148 C-20.73728967 21.92477468 -22.57970076 23.78538706 -24.421875 25.64648438 C-31.3093344 32.56622693 -38.32685286 38.95101859 -46 45 C-47.06368319 45.89742658 -48.12227172 46.80098963 -49.171875 47.71484375 C-70.3746484 65.99420446 -93.82372235 79.10959018 -122.49902344 77.27050781 C-128.19310272 76.65463122 -132.97515728 74.74719435 -138 72 C-138.91394531 71.5153125 -139.82789063 71.030625 -140.76953125 70.53125 C-151.10174768 64.50042839 -160.75786291 55.51823732 -168 46 C-168 45.34 -168 44.68 -168 44 C-167.0570105 43.75878418 -167.0570105 43.75878418 -166.0949707 43.51269531 C-152.12779587 39.99492674 -152.12779587 39.99492674 -138.3125 35.9375 C-132.06367665 33.94284248 -125.72390607 32.41120509 -119.35595703 30.85302734 C-114.75127408 29.71685203 -110.20797244 28.50545875 -105.6875 27.0625 C-99.76197888 25.17121398 -93.77217901 23.60982146 -87.75 22.0625 C-81.04631891 20.33944825 -74.3742562 18.57000106 -67.75 16.5625 C-59.19501 13.97348987 -50.54312722 11.77381151 -41.87792969 9.58618164 C-35.177276 7.88028128 -28.57155379 5.98089354 -21.97265625 3.91674805 C-18.13152085 2.73216662 -14.27169999 1.67147555 -10.375 0.6875 C-9.69566406 0.50638672 -9.01632812 0.32527344 -8.31640625 0.13867188 C-5.00684185 -0.70014277 -3.30870134 -1.10290045 0 0 Z "
       fill="#FC4400"
       transform="translate(445,1329)"
       id="path19" /><path
       d="M0 0 C-9.34546366 26.41579034 -32.45222997 61.37032857 -58.203125 73.87109375 C-71.66558283 79.3049629 -87.33184892 74.46044517 -100.0625 69.0625 C-105.59267823 66.69623546 -110.82711094 64.07075884 -116 61 C-113.11060368 58.71490268 -110.19273203 56.95905979 -106.9140625 55.28515625 C-105.91375 54.77082031 -104.9134375 54.25648437 -103.8828125 53.7265625 C-102.80773437 53.17742187 -101.73265625 52.62828125 -100.625 52.0625 C-92.68969651 47.9770869 -84.80477584 43.82919952 -77 39.5 C-65.4065144 33.09342262 -53.58927677 27.12707675 -41.78634644 21.11856079 C-30.39577795 15.31826371 -19.0594558 9.462338 -7.9140625 3.19921875 C-7.13933594 2.76609375 -6.36460937 2.33296875 -5.56640625 1.88671875 C-4.91615479 1.51764404 -4.26590332 1.14856934 -3.59594727 0.76831055 C-2 0 -2 0 0 0 Z "
       fill="#FB4400"
       transform="translate(499,1373)"
       id="path20" /><path
       d="M0 0 C0.33 0 0.66 0 1 0 C1.84009397 47.74534052 1.84009397 47.74534052 -12.80078125 63.08984375 C-23.73464503 72.58657446 -39.63342116 71.52214955 -53.1796875 70.83984375 C-59.67814961 70.32185039 -59.67814961 70.32185039 -62 68 C-52.46713185 57.36084839 -42.82429771 46.82987491 -33.03442383 36.42700195 C-30.15944529 33.36094483 -27.3397048 30.26155851 -24.5859375 27.0859375 C-20.13942554 21.97170684 -15.45691841 17.08722083 -10.78515625 12.1796875 C-7.78554216 9.01374682 -4.83049968 5.8549682 -2.0703125 2.4765625 C-1.38710938 1.65929688 -0.70390625 0.84203125 0 0 Z "
       fill="#FC4400"
       transform="translate(562,1394)"
       id="path23" /><path
       d="M0 0 C0.33 0 0.66 0 1 0 C1.09978872 4.80137245 1.17189617 9.60212521 1.21972656 14.40429688 C1.23969079 16.03363578 1.2668723 17.66290445 1.30175781 19.29199219 C1.55759502 31.55712881 1.05407863 41.70957115 -7.8203125 51.1171875 C-17.49066942 59.47043488 -28.4645783 63.2410705 -41 64 C-39.73148407 60.59378081 -38.27564476 57.65905724 -36.26953125 54.63134766 C-35.72135742 53.7992276 -35.17318359 52.96710754 -34.60839844 52.10977173 C-34.01575195 51.22018768 -33.42310547 50.33060364 -32.8125 49.4140625 C-31.88679199 48.0130983 -31.88679199 48.0130983 -30.94238281 46.58383179 C-28.96581142 43.59473432 -26.98298605 40.60984479 -25 37.625 C-23.69620599 35.6552183 -22.39281647 33.68516881 -21.08984375 31.71484375 C-17.97133982 27.00129625 -14.84466159 22.29323736 -11.71582031 17.58654785 C-10.09402071 15.14173341 -8.47929767 12.69242187 -6.8671875 10.24121094 C-6.39893555 9.53169281 -5.93068359 8.82217468 -5.44824219 8.09115601 C-4.58942984 6.78972652 -3.73315559 5.48661724 -2.87988281 4.18154907 C-1.94593524 2.77013705 -0.97715038 1.3818535 0 0 Z "
       fill="#FA4300"
       transform="translate(625,1410)"
       id="path29" /></g><g
     inkscape:groupmode="layer"
     id="layer2"
     inkscape:label="laser"><g
       id="g67"
       transform="matrix(0.78686647,0,0,0.79355527,991.61538,305.27496)"><path
         d="m 0,0 c 0.9980365,-0.00574036 0.9980365,-0.00574036 2.0162354,-0.01159668 1.3984123,-0.0027065 2.7968763,0.00456574 4.1951904,0.0213623 C 8.3387249,0.03119937 10.462648,0.0099269 12.589844,-0.015625 13.955737,-0.01298149 15.321627,-0.00785602 16.6875,0 c 1.843682,0.00676758 1.843682,0.00676758 3.724609,0.01367188 4.082452,0.61573686 6.235358,1.94609722 9.431641,4.51757812 2.236255,3.3543819 3.176933,6.60885 4.25,10.4375 0.443387,1.54445 0.887424,3.088713 1.332031,4.632812 0.231548,0.808565 0.463096,1.617129 0.70166,2.450196 1.186425,4.106791 2.42058,8.199059 3.653809,12.291992 0.70899,2.358104 1.417755,4.716275 2.126465,7.074463 0.495588,1.648211 0.991285,3.296389 1.487854,4.944305 4.902126,16.27 9.723203,32.564017 14.543396,48.858429 0.935894,3.163598 1.872434,6.327003 2.80957,9.490233 6.070573,20.49144 12.120797,40.98513 17.806152,61.58765 2.289844,8.29218 4.646676,16.54534 7.289063,24.73242 2.497811,7.75425 4.732504,15.56227 6.902344,23.41406 2.834142,10.22229 5.779735,20.41116 8.732326,30.59976 6.5147,22.48174 12.91084,44.98275 18.95054,67.59751 1.66177,6.1924 3.44022,12.32252 5.38745,18.43164 1.47174,4.95245 2.74052,9.95382 4.02734,14.95703 1.8022,7.00258 3.68933,13.93806 5.875,20.83203 4.16831,13.59044 7.85213,27.32805 11.21069,41.13892 1.87597,7.60357 4.09786,15.09435 6.32618,22.60083 1.86915,6.33976 3.58814,12.69378 5.15063,19.11572 1.56792,6.44258 3.26586,12.82292 5.125,19.1875 7.03381,24.20842 13.16989,48.69268 19.18091,73.17212 1.69414,6.87513 3.46619,13.71456 5.39721,20.5271 3.68142,13.04467 6.87282,26.22064 10.14496,39.3725 0.69757,2.80101 1.39774,5.60136 2.09793,8.40172 5.55742,22.2304 11.06257,44.47356 16.05399,66.83906 0.44629,1.99025 0.89318,3.98036 1.34006,5.97047 0.43408,1.93359 0.86757,3.8673 1.30105,5.80101 0.89292,3.97023 1.79843,7.93745 2.70728,11.90406 8.92714,39.01232 17.38054,78.17703 24.08911,117.63696 0.66424,3.89625 1.33039,7.79217 2,11.6875 0.15968,0.93103 0.31937,1.86205 0.48389,2.82129 1.19567,6.87781 2.55333,13.71498 3.95361,20.55371 4.12049,20.23937 7.37005,40.63375 10.1311,61.10083 0.81055,5.91263 1.76935,11.77399 2.90015,17.63354 1.43311,7.44376 2.56983,14.90724 3.60733,22.41535 0.53097,3.84176 1.07432,7.68179 1.61533,11.52215 0.16519,1.17649 0.16519,1.17649 0.33372,2.37674 0.87173,6.19699 1.78062,12.38775 2.70168,18.57761 5.98964,40.25473 11.56617,80.56593 16.60278,120.95093 0.63817,5.1134 1.28809,10.2252 1.93994,15.3369 5.504,43.2628 10.2835,86.5967 14.70203,129.9828 0.73765,7.2327 1.48989,14.4636 2.25891,21.693 0.0939,0.8841 0.18788,1.7682 0.28467,2.6791 0.34643,3.2568 0.6932,6.5135 1.04376,9.7698 4.12061,38.2787 4.12061,38.2787 -1.5589,46.8988 -6.7026,7.9354 -16.29079,9.3405 -26.125,10.3593 -0.98566,0.1098 -1.97133,0.2196 -2.98686,0.3327 -3.29498,0.3634 -6.59138,0.7112 -9.88814,1.058 -2.37999,0.2568 -4.75996,0.514 -7.13989,0.7714 -30.73478,3.294 -61.51094,6.1907 -92.28839,9.0528 -3.74384,0.3483 -7.48747,0.6989 -11.23102,1.0502 -36.35746,3.4116 -72.713142,6.432 -109.161577,8.7274 -7.426436,0.4678 -14.849955,0.9676 -22.272873,1.488 -82.664951,5.7277 -166.15207,6.2385 -248.90625,2.1602 -0.8927,-0.044 -1.78541,-0.088 -2.70516,-0.1327 -52.90547,-2.5972 -105.77695,-5.653 -158.60734,-9.4923 -0.97296,-0.071 -1.94592,-0.1412 -2.94836,-0.2139 -22.48316,-1.6332 -44.95424,-3.3992 -67.41883,-5.2705 -1.49632,-0.1246 -1.49632,-0.1246 -3.02286,-0.2518 -48.40133,-4.0414 -48.40133,-4.0414 -52.29745,-6.6388 -0.9375,-3.375 -0.9375,-3.375 -1,-7 1.62029,-2.2078 1.62029,-2.2078 4,-4 2.75728,-0.419 2.75728,-0.419 6.01294,-0.3003 1.25117,0.036 2.50233,0.073 3.79141,0.1104 1.39858,0.063 2.79713,0.1259 4.19565,0.1899 1.48777,0.054 2.9756,0.106 4.46347,0.1571 4.19154,0.1516 8.38132,0.333 12.5713,0.5227 2.8452,0.1288 5.69055,0.2537 8.53597,0.3777 4.08421,0.1782 8.16836,0.3576 12.25247,0.538 41.38311,1.8225 82.76295,3.4811 124.17679,4.4045 1.30953,0.029 2.61905,0.058 3.96826,0.088 41.85624,0.911 83.71606,1.0108 125.58095,1.0339 3.92768,0 7.85536,0.01 11.78303,0.011 6.24446,0.01 12.4889,0.01 18.73336,0 2.31721,0 4.63443,-6e-4 6.95164,0 11.22826,0.01 22.39381,-0.052 33.59349,-0.9049 3.68785,-0.2516 7.34578,-0.3457 11.04161,-0.407 0.73095,-0.013 1.46189,-0.025 2.21498,-0.038 0.88758,-0.013 0.88758,-0.013 1.79308,-0.025 42.958216,-0.6936 85.835882,-4.8519 128.554444,-9.1802 5.186849,-0.5239 10.375908,-1.0202 15.566406,-1.5063 64.570611,-6.0966 129.06548,-14.6078 193.21875,-24.0742 -12.37206,-0.1211 -24.68539,0.1995 -37.04481,0.7437 -22.04596,0.961 -44.0959,1.6416 -66.15441,2.2211 -0.74495,0.02 -1.4899,0.039 -2.25743,0.059 -9.31799,0.2455 -18.636091,0.4865 -27.954241,0.7258 -14.99486,0.3854 -29.989496,0.7794 -44.984058,1.1761 -1.661016,0.044 -3.322033,0.088 -4.983051,0.1317 -19.965987,0.5274 -39.93013565,1.0794 -59.891531,1.7624 -1.389877,0.047 -1.389877,0.047 -2.807833,0.096 -3.643718,0.1243 -7.287421,0.249 -10.931117,0.3739 -53.898676,1.8456 -107.814339,2.7214 -161.734929,3.6513 -1.33629,0.023 -1.33629,0.023 -2.69958,0.047 -1.78955,0.031 -3.57909,0.062 -5.36864,0.093 -3.53486,0.061 -7.06972,0.122 -10.60458,0.1829 -1.7505,0.03 -3.50101,0.06 -5.25152,0.091 -27.64679,0.4756 -55.28999,1.0391 -82.93283,1.7087 -32.13118,0.7768 -64.26043,1.2455 -96.39944,1.5626 -1.05294,0.01 -2.10588,0.021 -3.19073,0.032 -22.60302,0.2226 -45.20494,0.4238 -67.80927,0.3434 -0.5625,-1.9375 -0.5625,-1.9375 -1,-4 1.97754,-1.9776 5.7827,-1.4434 8.49609,-1.6133 0.81732,-0.054 1.63465,-0.1086 2.47673,-0.1645 2.8212,-0.1844 5.64285,-0.3602 8.46468,-0.5347 0.99578,-0.063 1.99156,-0.1256 3.01752,-0.1902 47.09093,-2.9496 94.25274,-5.1087 141.40509,-6.781 16.02183,-0.5723 32.03463,-1.2911 48.0483,-2.0569 6.15416,-0.2941 12.30841,-0.5864 18.46268,-0.8782 0.68737,-0.033 1.37473,-0.065 2.08293,-0.099 28.17737,-1.3343 56.36059,-2.5313 84.54598,-3.6824 0.89699,-0.037 1.79397,-0.073 2.71814,-0.1111 61.053471,-2.4924 122.114747,-4.6249 183.190063,-6.4942 5.035822,-0.1545 10.071629,-0.3096 15.107422,-0.4651 1.224305,-0.038 2.448611,-0.076 3.710016,-0.1144 19.806891,-0.6142 39.607882,-1.3426 59.408869,-2.1225 17.22381,-0.6775 34.44807,-1.2576 51.67799,-1.7552 1.40205,-0.041 2.8041,-0.082 4.20615,-0.1235 18.42981,-0.541 36.86043,-1.0366 55.29385,-1.439 0.91617,-0.021 1.83234,-0.041 2.77628,-0.062 13.30494,-0.2938 26.60324,-0.3596 39.91122,-0.3127 -1.04782,-12.1047 -2.09974,-24.209 -3.1564,-36.313 -0.52428,-6.0093 -1.04467,-12.019 -1.56044,-18.0291 -5.53043,-64.3402 -11.99299,-128.7433 -20.50582,-192.7644 -0.18086,-1.3692 -0.18086,-1.3692 -0.36537,-2.7661 -0.22216,-1.6767 -0.44722,-3.3529 -0.67587,-5.0287 -0.49453,-3.7244 -0.86344,-7.3397 -0.7361,-11.0988 -15.25679,5.9241 -30.44873,11.969 -45.55957,18.2574 -9.43821,3.9253 -18.90177,7.7849 -28.37793,11.6177 -15.69752,6.3505 -31.38207,12.7324 -47.0625,19.125 -15.26502,6.2227 -30.532532,12.439 -45.8125,18.625 -13.884843,5.6217 -27.75704,11.2742 -41.625,16.9375 -1.020303,0.4166 -2.040606,0.8333 -3.091827,1.2626 -1.026165,0.419 -2.052329,0.8381 -3.109589,1.2698 -31.3207109,12.7904 -62.643955,25.5749 -94.002563,38.2721 -14.461635,5.8561 -28.910417,11.7436 -43.358521,17.633 -15.16127,6.18 -30.32435,12.3553 -45.5,18.5 -14.82042,6.0014 -29.63031,12.0285 -44.4375,18.0625 -1.13989,0.4644 -2.27979,0.9289 -3.45422,1.4075 -10.54251,4.2961 -21.08462,8.5932 -31.62635,12.8913 -6.91046,2.8175 -13.8211,5.6346 -20.73193,8.4512 -1.12988,0.4605 -2.25977,0.921 -3.42389,1.3954 -15.54702,6.3357 -31.10302,12.6487 -46.66827,18.9394 -14.23217,5.7528 -28.4475,11.5462 -42.65784,17.3527 -15.40687,6.2951 -30.82078,12.5722 -46.25,18.8125 -1.27391,0.5153 -1.27391,0.5153 -2.57355,1.041 -7.67164,3.1032 -15.34402,6.2045 -23.01727,9.3037 -4.35573,1.7593 -8.71084,3.5202 -13.06555,5.2821 -1.62858,0.6585 -3.2574,1.3164 -4.88648,1.9736 -2.23371,0.9013 -4.46661,1.8045 -6.69934,2.7081 -0.65517,0.2638 -1.31035,0.5275 -1.98538,0.7993 -2.49431,1.0114 -4.93415,2.0334 -7.31979,3.283 -2.23755,1.0469 -3.42908,0.6086 -5.70264,-0.2033 0.10229,-1.7979 0.10229,-1.7979 1,-4 2.70435,-1.6319 2.70435,-1.6319 6.36328,-3.2344 1.00067,-0.4448 1.00067,-0.4448 2.02156,-0.8986 2.19847,-0.9716 4.40591,-1.9203 6.61516,-2.867 1.4877,-0.6473 2.97517,-1.2951 4.4624,-1.9434 4.02583,-1.7471 8.06101,-3.4714 12.09931,-5.1894 4.62366,-1.9673 9.24355,-3.9434 13.86407,-5.918 0.95632,-0.4085 1.91265,-0.8169 2.89795,-1.2377 10.19538,-4.3561 20.37428,-8.7502 30.55127,-13.149 1.84757,-0.7983 3.69514,-1.5966 5.54272,-2.3948 7.2998,-3.1542 14.59897,-6.3099 21.89771,-9.4666 5.31118,-2.297 10.62274,-4.5931 15.93457,-6.8886 0.88167,-0.3811 1.76334,-0.7622 2.67172,-1.1548 11.46429,-4.9538 22.93725,-9.887 34.41812,-14.8023 0.61512,-0.2634 1.23024,-0.5268 1.864,-0.7981 6.64036,-2.8434 13.28152,-5.6848 19.92409,-8.5229 12.07081,-5.1619 24.11341,-10.3814 36.12366,-15.6827 7.9368,-3.5016 15.8962,-6.9462 23.87607,-10.3484 3.69316,-1.5748 7.38429,-3.1544 11.07547,-4.7338 1.11229,-0.4759 1.11229,-0.4759 2.24705,-0.9613 7.3392,-3.1421 14.66447,-6.3159 21.98732,-9.4957 9.36471,-4.0659 18.73843,-8.1099 28.125,-12.125 10.94805,-4.6841 21.88329,-9.3972 32.8125,-14.125 1.18359,-0.512 1.18359,-0.512 2.39108,-1.0344 8.01207,-3.4661 16.0228,-6.9354 24.030795,-10.411 13.654336,-5.9254 27.321774,-11.8184 41.006134,-17.6742 12.598165,-5.3916 25.181012,-10.8181 37.759491,-16.2554 14.845459,-6.4162 29.6978467,-12.8159 44.5625,-19.1875 0.878214,-0.3765 1.756428,-0.753 2.661255,-1.1409 8.379815,-3.5915 16.761868,-7.1771 25.162964,-10.7185 1.178686,-0.497 2.357373,-0.9939 3.571777,-1.5059 2.076156,-0.8734 4.153187,-1.7448 6.231445,-2.6133 4.884867,-2.0515 9.717064,-4.1848 14.520996,-6.4199 6.433525,-2.9895 12.932458,-5.811 19.458649,-8.5904 2.183435,-0.93 4.365793,-1.8625 6.547944,-2.7956 3.34773,-1.4312 6.69583,-2.8615 10.04419,-4.2912 10.99896,-4.6973 21.9941,-9.4034 32.98828,-14.1118 1.19048,-0.5098 2.38096,-1.0196 3.60751,-1.5448 19.70419,-8.4401 39.37583,-16.9529 59.0252,-25.5197 1.28395,-0.5598 1.28395,-0.5598 2.59385,-1.1309 0.8225,-0.3586 1.645,-0.7173 2.49242,-1.0868 6.97692,-3.0397 13.9681,-6.0452 20.96852,-9.0304 0.0773,-5.17795 -0.14606,-10.07908 -0.84766,-15.22261 -0.0919,-0.68169 -0.18377,-1.36339 -0.27844,-2.06575 -0.30647,-2.25884 -0.6212,-4.51645 -0.9364,-6.77409 -0.22208,-1.61928 -0.444,-3.23859 -0.66577,-4.85791 -1.98003,-14.35725 -4.13231,-28.68891 -6.29721,-43.01926 -1.76934,-11.71504 -3.43901,-23.42121 -4.84952,-35.18533 -1.77818,-14.63829 -4.27045,-29.1542 -6.75,-43.6875 -0.20027,-1.17428 -0.40054,-2.34855 -0.60687,-3.55841 -0.57871,-3.38337 -1.16067,-6.76616 -1.74469,-10.14862 -0.17384,-1.00923 -0.34769,-2.01846 -0.5268,-3.05827 -0.94146,-5.41157 -1.95064,-10.80119 -3.06772,-16.1794 -0.75544,-3.95015 -1.19212,-7.93993 -1.67892,-11.9303 -1.25707,-9.76258 -2.99846,-19.40412 -4.875,-29.0625 -0.1341,-0.69483 -0.26821,-1.38967 -0.40637,-2.10556 -1.11345,-7.26879 -1.11345,-7.26879 -3.46863,-14.14444 -0.99258,0.81082 -1.98516,1.62164 -3.00781,2.45703 -6.60063,5.38251 -13.21142,10.74521 -19.92969,15.98047 -6.68148,5.21404 -13.21498,10.59955 -19.74609,16 -9.13955,7.55464 -18.3575,15.01418 -27.62891,22.40625 -3.57588,2.86902 -7.13138,5.7628 -10.6875,8.65625 -5.08581,4.13808 -10.18586,8.2563 -15.3125,12.34375 -3.575878,2.86902 -7.131355,5.76283 -10.6875,8.65625 -6.726085,5.47187 -13.48352,10.90239 -20.265625,16.30469 -4.494969,3.58704 -8.969355,7.19781 -13.427002,10.83105 -5.708948,4.65279 -11.436293,9.27382 -17.244873,13.80176 -6.686509,5.21816 -13.224821,10.60808 -19.761719,16.01172 -9.5487722,7.89224 -19.16555736,15.69102 -28.9333494,23.31055 -5.5211706,4.32493 -10.9253666,8.78799 -16.3298336,13.25732 -4.43452,3.66664 -8.895691,7.29386 -13.400879,10.87353 -3.48079,2.78464 -6.931907,5.60513 -10.386719,8.42188 -5.023508,4.09327 -10.076698,8.14132 -15.1875,12.125 -6.005404,4.68322 -11.881001,9.51331 -17.74585,14.37085 -4.390669,3.62854 -8.821751,7.19324 -13.31665,10.69165 -6.07798,4.73135 -12.02722,9.60885 -17.96265,14.51735 -4.43447,3.6665 -8.89553,7.2937 -13.40063,10.8733 -3.48079,2.7846 -6.93191,5.6051 -10.38672,8.4219 -5.02351,4.0932 -10.07674,8.1412 -15.1875,12.125 -6.0961,4.7548 -12.06726,9.6527 -18.0249,14.5795 -4.43452,3.6667 -8.89569,7.2939 -13.40088,10.8736 -3.48079,2.7846 -6.93191,5.6051 -10.38672,8.4219 -5.02351,4.0932 -10.07674,8.1412 -15.1875,12.125 -6.0961,4.7548 -12.06726,9.6527 -18.0249,14.5795 -4.4295,3.6625 -8.88584,7.2854 -13.38526,10.8619 -3.56763,2.853 -7.1093,5.7376 -10.65234,8.6211 -5.0908,4.1422 -10.1956,8.2649 -15.32812,12.3554 -2.79477,2.2432 -5.57363,4.5051 -8.35132,6.7693 -5.71305,4.6568 -11.44479,9.2815 -17.25806,13.8128 -6.0054,4.6832 -11.881,9.5133 -17.74585,14.3708 -4.94199,4.0842 -9.94891,8.0706 -15.00806,12.0081 -4.66958,3.6484 -9.245,7.4037 -13.80859,11.1836 -5.66599,4.6929 -11.38571,9.2978 -17.19141,13.8164 -4.66958,3.6484 -9.245,7.4037 -13.80859,11.1836 -5.66599,4.6929 -11.38571,9.2978 -17.19141,13.8164 -5.41141,4.228 -10.69578,8.6043 -15.98339,12.9856 -4.47338,3.6978 -8.99342,7.323 -13.5752,10.8855 -4.50666,3.5051 -8.91226,7.1003 -13.25,10.8125 -4.9232,4.2123 -9.95211,8.2569 -15.06299,12.2387 -6.53647,5.0995 -12.95534,10.341 -19.37842,15.5821 -20.84766,17.0054 -20.84766,17.0054 -28.05859,22.6792 -0.70125,0.571 -1.4025,1.1421 -2.125,1.7304 -1.875,1.2696 -1.875,1.2696 -4.125,0.9571 -0.5775,-0.2269 -1.155,-0.4538 -1.75,-0.6875 0.089,-2.6705 0.52469,-4.4614 2.31152,-6.4864 1.81087,-1.6478 3.66801,-3.2139 5.56348,-4.7636 0.68111,-0.5729 1.36222,-1.1457 2.06396,-1.7359 2.00978,-1.6846 4.03263,-3.352 6.06104,-5.0141 0.98484,-0.8122 1.96969,-1.6243 2.98438,-2.461 1.75375,-1.4372 3.51155,-2.8696 5.27343,-4.2969 3.11219,-2.5447 6.17945,-5.1383 9.24219,-7.7421 4.84949,-4.1212 9.75161,-8.17 14.6875,-12.1875 3.1305,-2.574 6.22422,-5.1882 9.3125,-7.8125 4.84959,-4.1211 9.75161,-8.17 14.6875,-12.1875 3.1305,-2.574 6.22422,-5.1882 9.3125,-7.8125 4.84959,-4.1211 9.75161,-8.17 14.6875,-12.1875 3.69344,-3.0369 7.33548,-6.1322 10.97876,-9.2288 3.39328,-2.8792 6.81642,-5.7158 10.27124,-8.5212 4.24642,-3.4553 8.41546,-6.9895 12.5625,-10.5625 5.01319,-4.3193 10.08537,-8.551 15.22266,-12.7227 3.1213,-2.5594 6.20184,-5.1633 9.27734,-7.7773 4.84954,-4.1211 9.75161,-8.17 14.6875,-12.1875 3.1305,-2.574 6.22422,-5.1882 9.3125,-7.8125 4.84959,-4.1211 9.75161,-8.17 14.6875,-12.1875 3.1305,-2.574 6.22422,-5.1882 9.3125,-7.8125 4.84959,-4.1211 9.75161,-8.17 14.6875,-12.1875 3.69344,-3.0369 7.33548,-6.1322 10.97876,-9.2288 3.39328,-2.8792 6.81642,-5.7158 10.27124,-8.5212 4.24642,-3.4553 8.41546,-6.9895 12.5625,-10.5625 5.01319,-4.3193 10.08537,-8.551 15.22266,-12.7227 3.1213,-2.5594 6.20184,-5.1633 9.27734,-7.7773 4.84954,-4.1211 9.75161,-8.17 14.6875,-12.1875 3.1305,-2.574 6.22422,-5.1882 9.3125,-7.8125 4.84959,-4.1211 9.75161,-8.17 14.6875,-12.1875 3.1305,-2.574 6.22422,-5.1882 9.3125,-7.8125 4.84959,-4.1211 9.75161,-8.17 14.6875,-12.1875 3.69344,-3.0369 7.33548,-6.1322 10.97876,-9.2288 3.39328,-2.8792 6.81642,-5.7158 10.27124,-8.5213 4.24642,-3.4552 8.41546,-6.9894 12.5625,-10.5625 5.01319,-4.3192 10.08537,-8.55092 15.22266,-12.72261 3.1213,-2.55938 6.20184,-5.16328 9.27734,-7.77734 4.849541,-4.12108 9.75161,-8.16991 14.6875,-12.1875 3.130497,-2.57396 6.224225,-5.18819 9.3125,-7.8125 4.849594,-4.12102 9.751608,-8.16991 14.6875,-12.1875 3.130497,-2.57396 6.224225,-5.18819 9.3125,-7.8125 4.849594,-4.12102 9.751608,-8.16991 14.6875,-12.1875 3.693439,-3.03683 7.335485,-6.13211 10.97876,-9.22876 3.393281,-2.87919 6.816418,-5.71578 10.27124,-8.52124 4.246424,-3.45524 8.415463,-6.98948 12.5625,-10.5625 5.0131949,-4.31929 10.0853732,-8.55097 15.2226562,-12.72266 3.1213078,-2.55938 6.2018438,-5.16328 9.2773438,-7.77734 4.849541,-4.12108 9.75161,-8.16991 14.6875,-12.1875 3.130497,-2.57396 6.224225,-5.18819 9.3125,-7.8125 4.849594,-4.12102 9.751608,-8.16991 14.6875,-12.1875 3.130497,-2.57396 6.224225,-5.18819 9.3125,-7.8125 4.849594,-4.12102 9.751608,-8.16991 14.6875,-12.1875 3.693439,-3.03683 7.335485,-6.13211 10.97876,-9.22876 3.393281,-2.87919 6.816418,-5.71578 10.27124,-8.52124 4.24642,-3.45524 8.41546,-6.98948 12.5625,-10.5625 5.01319,-4.31929 10.08537,-8.55097 15.22266,-12.72266 3.1213,-2.55938 6.20184,-5.16328 9.27734,-7.77734 4.84954,-4.12108 9.75161,-8.16991 14.6875,-12.1875 3.1305,-2.57396 6.22422,-5.18819 9.3125,-7.8125 3.96908,-3.37279 7.96017,-6.71177 12,-10 0.87141,-0.72316 1.74281,-1.44633 2.64062,-2.19141 2.1276,-1.71777 4.26446,-3.34836 6.46875,-4.96093 1.21377,-0.9281 2.42731,-1.85648 3.64063,-2.78516 0.58588,-0.40605 1.17176,-0.81211 1.77539,-1.23047 1.91426,-1.39229 1.91426,-1.39229 3.97461,-4.33203 0.13595,-2.22184 0.13595,-2.22184 -0.23877,-4.62451 -0.11344,-0.88955 -0.22687,-1.7791 -0.34375,-2.6956 -0.61553,-3.95121 -1.37691,-7.84955 -2.23779,-11.75411 -0.1793,-0.83378 -0.3586,-1.66755 -0.54334,-2.52659 -0.58159,-2.6968 -1.17124,-5.39175 -1.76135,-8.08669 -0.40967,-1.88974 -0.81901,-3.77955 -1.22803,-5.66943 -2.64401,-12.18611 -5.35351,-24.35699 -8.12646,-36.51441 -1.5795,-6.92827 -3.11952,-13.86311 -4.61484,-20.81004 -3.11454,-14.46617 -6.4457,-28.86133 -9.9841,-43.23 -2.67898,-10.87934 -5.24163,-21.77599 -7.67157,-32.71362 -1.9675,-8.8454 -4.01798,-17.64116 -6.40646,-26.38255 -1.48237,-5.48254 -2.76703,-10.99046 -3.99198,-16.53542 -3.03919,-13.54564 -6.41293,-27.00737 -9.79004,-40.47168 -0.88724,-3.53755 -1.77019,-7.07615 -2.65203,-10.61505 -4.71953,-18.93282 -4.71953,-18.93282 -9.83973,-37.76038 -1.6048,-5.66832 -3.00943,-11.36732 -4.31976,-17.10992 -0.40922,-1.78177 -0.82057,-3.56304 -1.23437,-5.34375 -0.17242,-0.75475 -0.34483,-1.50949 -0.52247,-2.28711 -0.44415,-1.94132 -0.44415,-1.94132 -1.49316,-3.86914 -1.6875,2.53125 -1.6875,2.53125 -3.375,5.0625 -2.27344,3.41016 -4.54687,6.82031 -6.82031,10.23047 -0.37182,0.55776 -0.74363,1.11552 -1.12671,1.69018 -0.81447,1.22162 -1.62909,2.44313 -2.44385,3.66456 -2.47358,3.70879 -4.943694,7.41985 -7.409911,11.13354 -6.393219,9.61782 -12.814593,19.21531 -19.285157,28.78125 -13.986534,20.682 -27.873065,41.42209 -41.557373,62.30566 -6.453264,9.8399 -13.00374,19.60262 -19.668701,29.3003 -5.9312063,8.63489 -11.7711178,17.33198 -17.625488,26.01904 -0.952023,1.4119 -0.952023,1.4119 -1.9232788,2.85233 -7.7805742,11.53939 -15.5376692,23.09334 -23.2412722,34.68429 -5.073296,7.62415 -10.210139,15.20436 -15.358917,22.77765 -8.102498,11.91872 -16.167816,23.86237 -24.226532,35.81073 -0.6187,0.91698 -1.237399,1.83395 -1.874847,2.77872 -8.975251,13.30294 -17.898742,26.63868 -26.776963,40.00651 -2.23526,3.3648 -4.472,6.7286 -6.70903,10.09221 -1.13884,1.71333 -2.27685,3.4272 -3.41406,5.1416 -5.55596,8.37449 -11.11723,16.70558 -17.09278,24.78858 -4.84404,6.73984 -9.35891,13.71314 -13.94482,20.62988 -1.03494,1.55744 -2.07009,3.11473 -3.10547,4.67187 -2.03696,3.0641 -4.073,6.1288 -6.10815,9.1941 -7.23246,10.89206 -14.49725,21.7594 -21.84888,32.57153 -0.81891,1.20544 -1.63776,2.41093 -2.45654,3.61646 -1.69213,2.4913 -3.38455,4.9824 -5.07715,7.47338 -2.46301,3.62524 -4.92398,7.25184 -7.38428,10.87891 -0.39511,0.58248 -0.79022,1.16496 -1.19731,1.76509 -0.79435,1.17105 -1.5887,2.34209 -2.38304,3.51314 -7.04154,10.38025 -14.09103,20.75508 -21.14621,31.12607 -4.9471,7.27324 -9.88722,14.55118 -14.82477,21.8309 -6.66769,9.83049 -13.34539,19.65401 -20.03998,29.46622 -11.15933,16.35717 -22.28199,32.73925 -33.39691,49.12661 -5.75629,8.48632 -11.52705,16.96267 -17.30865,25.43177 -5.51026,8.0774 -10.99179,16.1741 -16.47266,24.2715 -6.18986,9.1445 -12.39015,18.2813 -18.63428,27.3889 -6.54479,9.5484 -13.04498,19.1272 -19.55127,28.7019 -3.56201,5.2413 -7.12579,10.4814 -10.68945,15.7217 -4.27391,6.2848 -8.54758,12.5698 -12.82031,18.8554 -25.35775,37.3021 -25.35775,37.3021 -37.36914,54.7412 -2.2721,3.2998 -4.54116,6.6017 -6.81055,9.9034 -2.70173,3.9306 -5.40388,7.861 -8.10937,11.789 -5.92209,8.601 -11.81314,17.2229 -17.69336,25.8526 -5.71208,8.3825 -11.43476,16.7577 -17.16846,25.1254 -1.52589,2.2287 -3.04899,4.4592 -4.57178,6.69 -2.26065,3.3089 -4.53414,6.6085 -6.82031,9.8999 -1.01318,1.4645 -2.01337,2.9379 -3.01172,4.4126 -1.5625,2.2305 -1.5625,2.2305 -4.125,5.2305 -1.32,0 -2.64,0 -4,0 0.51931,-4.6397 1.70024,-7.631 4.24609,-11.5274 0.66766,-1.0321 1.33531,-2.0643 2.0232,-3.1277 0.71551,-1.0832 1.43102,-2.1664 2.16821,-3.2824 0.73593,-1.1295 1.47103,-2.2594 2.20532,-3.3899 2.10499,-3.2336 4.22855,-6.4546 6.35718,-9.6726 0.78697,-1.1902 0.78697,-1.1902 1.58984,-2.4043 2.06018,-3.1078 4.13193,-6.2076 6.21094,-9.3028 4.39239,-6.5769 8.62506,-13.2573 12.87793,-19.9248 9.6816,-15.1759 19.46646,-30.2782 29.33447,-45.3335 6.49584,-9.9217 12.96037,-19.8642 19.36182,-29.8471 5.83261,-9.0896 11.74853,-18.1248 17.65332,-27.1675 3.1591,-4.8388 6.31529,-9.6795 9.47168,-14.52 1.24999,-1.9167 2.49999,-3.8334 3.75,-5.75 0.61875,-0.9488 1.2375,-1.8975 1.875,-2.875 1.875,-2.875 3.75,-5.75 5.625,-8.625 0.92788,-1.4228 0.92788,-1.4228 1.87451,-2.8743 1.25161,-1.9191 2.50324,-3.8382 3.75488,-5.7573 3.10057,-4.7541 6.2008,-9.5083 9.3003,-14.263 7.31773,-11.2246 14.64515,-22.4429 21.97949,-33.6567 6.50228,-9.9429 12.99284,-19.8933 19.48047,-29.8457 1.91356,-2.93465 3.82822,-5.86855 5.74316,-8.80227 5.47071,-8.38232 10.93976,-16.76536 16.36719,-25.17578 5.78747,-8.96482 11.64431,-17.88422 17.49683,-26.80664 4.35126,-6.63445 8.69256,-13.27508 13.01709,-19.927 6.49832,-9.99491 13.0888,-19.92379 19.72097,-29.83002 4.84544,-7.24254 9.60474,-14.52433 14.17478,-21.94415 3.03839,-4.92471 6.21718,-9.74317 9.44809,-14.54335 3.07168,-4.57017 6.07814,-9.1792 9.06021,-13.80822 5.36155,-8.30309 10.774,-16.57168 16.20703,-24.82812 0.9861,-1.49926 1.97218,-2.99853 2.95825,-4.4978 2.11155,-3.21006 4.22368,-6.41973 6.33618,-9.62915 2.25628,-3.4279 4.51176,-6.85632 6.76661,-10.28516 14.74569,-22.42197 29.54368,-44.80734 44.46704,-67.11157 4.82748,-7.21967 9.6351,-14.44209 14.26684,-21.78955 4.38369,-6.8849 8.903855,-13.68261 13.39258,-20.49927 0.542635,-0.82471 1.08527,-1.64942 1.644348,-2.49911 8.311451,-12.63055 16.675917,-25.22481 25.07663,-37.79612 4.786165,-7.1632 9.561318,-14.33045 14.216522,-21.57977 3.551643,-5.5192 7.148573,-11.00519 10.796875,-16.46094 0.480961,-0.72067 0.961923,-1.44135 1.457459,-2.18387 2.453279,-3.67572 4.909875,-7.3492 7.368713,-11.02121 4.444892,-6.64359 8.848178,-13.30341 13.115723,-20.06298 3.234504,-5.08895 6.550297,-10.12523 9.8576656,-15.167 1.2051766,-1.8374 2.4089458,-3.67572 3.6125488,-5.51416 5.71794193,-8.72733 11.4934179,-17.41528 17.2910156,-26.08984 15.81613,-23.67455 31.58244,-47.38016 47.229736,-71.16675 6.556945,-9.96684 13.139767,-19.91519 19.770264,-29.83325 1.013299,-1.51935 2.026368,-3.03885 3.039062,-4.55859 0.427728,-0.64067 0.855455,-1.28133 1.296143,-1.94141 0.9147,-1.37404 1.825615,-2.75061 2.733887,-4.12891 3.015102,-4.56102 6.111959,-9.04808 9.286377,-13.5 0.738471,-1.05582 1.476943,-2.11164 2.237793,-3.19946 1.450395,-2.07284 2.921368,-4.13146 4.415038,-6.17334 4.33126,-6.21189 4.33126,-6.21189 5.11279,-13.53345 -0.32177,-1.66582 -0.69731,-3.322 -1.12109,-4.96484 -0.19553,-0.86802 -0.39107,-1.73604 -0.59253,-2.63037 -0.6604,-2.7878 -1.39772,-5.54483 -2.15747,-8.30713 -0.26804,-0.99999 -0.53609,-1.99998 -0.81226,-3.03027 -0.5471,-2.04067 -1.09712,-4.08056 -1.65014,-6.11963 -1.139747,-4.21487 -2.244273,-8.43874 -3.3501,-12.6626 -0.411161,-1.56128 -0.822617,-3.12247 -1.234375,-4.68359 -0.783163,-2.97086 -1.564462,-5.94219 -2.34375,-8.91407 -6.18569,-23.57756 -12.511491,-47.11802 -18.859375,-70.65234 -1.146312,-4.24987 -2.29221,-8.49985 -3.4375,-12.75 -0.284802,-1.05671 -0.569604,-2.11342 -0.863037,-3.20215 -1.589573,-5.90425 -3.170918,-11.81064 -4.742432,-17.71973 -0.171742,-0.64576 -0.343485,-1.29152 -0.520431,-1.95686 -0.171874,-0.64628 -0.343747,-1.29256 -0.520829,-1.95842 -3.010097,-11.31807 -6.055725,-22.62364 -9.214599,-33.90112 -1.494896,-5.35498 -2.972065,-10.71487 -4.451172,-16.07422 -0.337573,-1.22203 -0.675146,-2.44406 -1.022949,-3.70313 -1.859403,-6.74065 -3.705055,-13.48477 -5.531739,-20.23437 -0.773036,-2.85428 -1.546461,-5.70845 -2.320312,-8.5625 -0.190207,-0.70165 -0.380414,-1.40331 -0.576386,-2.12622 C 39.164215,122.21449 36.576199,113.1302 33.800293,104.08765 32.135606,98.627404 30.710763,93.139041 29.377197,87.589844 28.091337,82.323128 26.558242,77.151081 24.96875,71.96875 22.407722,63.609228 20.141241,55.195652 17.966797,46.728027 16.054428,39.288914 14.014524,31.899113 11.84375,24.53125 c -2.31,0 -4.62,0 -7,0 C 4.4230322,25.548079 4.0023144,26.564907 3.5688477,27.612549 -12.64642,66.794926 -29.023292,105.90768 -45.536392,144.96544 c -2.876953,6.80555 -5.749353,13.61301 -8.619858,20.42128 -10.858354,25.75086 -21.789908,51.46597 -32.920105,77.1008 -5.064059,11.66525 -10.075712,23.35269 -15.079895,35.04373 -5.6447,13.18738 -11.31278,26.36371 -17.02954,39.52002 -4.27953,9.85965 -8.51157,19.73931 -12.73871,29.62152 -5.81771,13.60058 -11.66045,27.18855 -17.60675,40.73346 -7.09439,16.16114 -14.11811,32.35331 -20.9375,48.63281 -0.35272,0.842 -0.70544,1.684 -1.06885,2.55152 -0.622,1.48868 -1.24182,2.97829 -1.8584,4.46923 -1.78889,4.2916 -3.69519,8.51656 -5.65478,12.73316 -2.9327,6.31999 -5.69739,12.69967 -8.41797,19.11328 -3.52662,8.27573 -7.07672,16.54013 -10.68359,24.78125 -0.51711,1.18153 -0.51711,1.18153 -1.04467,2.38693 -0.7095,1.62085 -1.41903,3.24169 -2.12858,4.86252 -6.78109,15.49475 -13.42564,31.04103 -19.96616,46.63873 -4.55602,10.86337 -9.16472,21.70257 -13.81659,32.52521 -4.25857,9.90846 -8.49635,19.82551 -12.71588,29.75067 -0.4998,1.17524 -0.9996,2.35049 -1.51454,3.56134 -2.00643,4.71827 -4.01284,9.43654 -6.01601,14.15619 -6.43451,15.15996 -12.98496,30.26343 -19.64004,45.32782 -2.47626,5.61657 -4.91373,11.24987 -7.34894,16.88434 -0.52046,1.20165 -1.04092,2.4033 -1.57715,3.64136 -2.82887,6.53248 -5.64968,13.0684 -8.46406,19.60714 -1.47659,3.42993 -2.9549,6.8591 -4.43331,10.28824 -0.72354,1.67971 -1.44618,3.3598 -2.16791,5.04029 -1.0077,2.34633 -2.01827,4.69141 -3.02944,7.03625 -0.30354,0.70891 -0.60708,1.41782 -0.91982,2.14821 -2.10702,4.87472 -2.10702,4.87472 -3.22081,5.98851 -2.9375,0.1875 -2.9375,0.1875 -6,0 -0.66,-0.66 -1.32,-1.32 -2,-2 0.32725,-5.74115 2.17498,-10.73319 4.21094,-16.07031 0.48608,-1.29942 0.48608,-1.29942 0.98198,-2.62508 1.05399,-2.81244 2.11795,-5.62099 3.18208,-8.42961 0.73165,-1.94712 1.46269,-3.89447 2.19312,-5.84204 4.57399,-12.18026 9.20174,-24.34027 13.83959,-36.49634 2.46374,-6.48031 4.8371,-12.98097 7.09229,-19.53662 3.81163,-11.0784 8.01163,-22.00668 12.19229,-32.94987 2.66733,-6.98427 5.30914,-13.97813 7.95142,-20.97191 2.43803,-6.45095 4.88114,-12.89998 7.32321,-19.3494 1.08527,-2.86667 2.17002,-5.73353 3.25476,-8.6004 15.99374,-42.26086 32.37144,-84.33469 49.37256,-126.20069 3.50728,-8.63858 7.00036,-17.2829 10.49359,-25.92718 1.16583,-2.88461 2.33216,-5.76902 3.4986,-8.65338 4.39347,-10.86555 8.77978,-21.73395 13.15966,-32.60498 22.54421,-55.95023 45.6687,-111.6345 69.17328,-167.18775 1.03849,-2.45483 2.07649,-4.90987 3.11432,-7.36499 6.799571,-16.08336 13.648505,-32.14235 20.638673,-48.14404 2.337088,-5.36095 4.659356,-10.72832 6.983094,-16.09506 5.315864,-12.2762 10.635622,-24.5507 15.979797,-36.81461 1.23724,-2.84277 2.47126,-5.68693 3.704559,-8.531416 7.032445,-16.210748 14.202508,-32.35127 21.6055,-48.39656 3.104601,-6.732793 6.187308,-13.471186 9.161575,-20.262802 1.342395,-3.064828 2.696783,-6.124297 4.051346,-9.183762 0.637746,-1.450416 1.269303,-2.903571 1.894226,-4.359558 0.865279,-2.014879 1.751655,-4.019215 2.642853,-6.022736 0.495161,-1.1388059 0.990322,-2.277612 1.500488,-3.4509275 C -11.233017,1.4100954 -6.8664538,0.0252046 0,0 Z"
         fill="#ff4500"
         transform="translate(598.15625,37.46875)"
         id="path2-0" /><path
         d="m 0,0 c 4.991114,-0.05524735 9.9821563,-0.0955248 14.97348,-0.12607956 1.896389,-0.0141664 3.792748,-0.0335309 5.689026,-0.0584793 2.620589,-0.0336034 5.240649,-0.0481183 7.86142,-0.058239 0.767752,-0.0142892 1.535505,-0.0285784 2.326523,-0.0433006 8.095842,0.0108061 13.63465,3.04230666 19.517227,8.54867166 4.211446,4.3726958 4.956474,8.1175938 5.234375,14.0507808 -0.2732,10.017339 -4.659674,16.287134 -11.332031,23.410157 -3.944639,4.257366 -7.516103,8.831678 -11.167969,13.339843 -2.546669,3.121106 -5.098026,6.238356 -7.651367,9.354004 -0.972422,1.186834 -1.944369,2.374056 -2.916016,3.561524 -3.556045,4.34388 -7.123318,8.678186 -10.705566,13.000488 -1.091907,1.317573 -2.1822782,2.636421 -3.2705082,3.957031 -11.2405728,13.604439 -23.4478148,26.351009 -37.4565428,37.126949 -1.001602,0.80696 -2.003203,1.61391 -3.035156,2.44532 -22.074162,17.66204 -48.341044,29.7165 -75.964845,35.55468 -1.0692,0.2276 -2.13839,0.4552 -3.23999,0.6897 -9.39489,1.94354 -18.81572,3.46855 -28.32251,4.7478 -0.77475,0.10511 -1.54949,0.21022 -2.34772,0.31852 -20.46907,2.74875 -41.03227,4.45907 -61.61871,6.05191 -2.19868,0.1709 -4.39694,0.34615 -6.59509,0.52362 -8.95146,0.71022 -17.90836,1.21923 -26.87598,1.66845 -0.82624,0.0415 -1.65248,0.083 -2.50376,0.12573 -49.12524,2.41833 -98.27994,2.183 -147.45068,2.13141 -7.95889,-0.007 -15.91773,-0.005 -23.87661,0.004 -46.70961,0.0484 -93.4003,-0.0807 -140.09864,-1.19043 -1.33499,-0.0313 -1.33499,-0.0313 -2.69696,-0.0633 -26.52603,-0.62553 -52.99166,-1.6413 -79.4588,-3.58172 -5.27964,-0.38494 -10.56122,-0.73262 -15.84387,-1.07346 -44.03486,-2.84577 -87.90511,-7.10712 -131.69568,-12.53934 -0.97598,-0.12042 -1.95196,-0.24085 -2.95752,-0.36492 -10.62563,-1.3205 -21.17394,-2.84495 -31.70605,-4.77594 -4.8067,-0.86984 -9.62693,-1.60148 -14.46143,-2.29664 -9.87594,-1.43262 -9.87594,-1.43262 -14.25,-2.375 2.32155,-2.32155 2.85251,-2.28826 6.00195,-2.48657 0.83109,-0.0567 1.66217,-0.11336 2.51844,-0.17177 0.91108,-0.0522 1.82217,-0.10432 2.76086,-0.15806 0.95975,-0.0614 1.9195,-0.12277 2.90833,-0.18602 2.05779,-0.12954 4.11587,-0.25448 6.17419,-0.37526 3.01366,-0.17759 6.02603,-0.37016 9.03857,-0.56567 35.75511,-2.24921 71.53575,-2.21424 107.34471,-2.25588 9.09969,-0.0106 18.19936,-0.0312 27.29903,-0.0531 3.15229,-0.007 6.30458,-0.0149 9.45686,-0.0223 1.18126,-0.003 1.18126,-0.003 2.38639,-0.006 8.90554,-0.0208 17.81108,-0.0397 26.71663,-0.0576 1.21581,-0.002 1.21581,-0.002 2.45618,-0.005 11.38118,-0.0228 22.76237,-0.0406 34.14357,-0.0554 107.43268,-0.0254 107.43268,-0.0254 214.79429,-3.60179 1.24392,-0.0634 2.48783,-0.1267 3.76944,-0.19197 13.5928,-0.70401 27.17074,-1.55869 40.74502,-2.55557 4.66413,-0.33939 9.32945,-0.66169 13.99457,-0.98707 8.13881,-0.57022 16.27643,-1.15549 24.41346,-1.75048 6.14934,-0.44915 12.29961,-0.88291 18.45041,-1.31166 87.5019,-5.26526 87.5019,-5.26526 173.6271,-20.20325 1.12245,-0.26151 1.12245,-0.26151 2.26758,-0.52832 23.721247,-5.62385 44.111596,-18.248881 62.245116,-34.167965 1.359619,-1.191786 2.731456,-2.369595 4.104492,-3.545898 4.748896,-4.142008 9.161614,-8.51876 13.445313,-13.132813 0.687513,-0.739357 0.687513,-0.739357 1.388916,-1.493652 3.209683,-3.516677 6.236123,-7.167204 9.245605,-10.856445 0.806868,-0.988439 1.613735,-1.976878 2.445053,-2.99527 0.613116,-0.752279 1.226231,-1.504557 1.857926,-2.279633 -1.236961,-0.02043 -1.236961,-0.02043 -2.49891,-0.04126 -26.687925,-0.440904 -53.375784,-0.885728 -80.063591,-1.333735 -1.01554,-0.01704 -2.03108,-0.03409 -3.0774,-0.05165 -98.36736,-1.651297 -98.36736,-1.651297 -146.2351,-2.698354 -1.88259,-0.041 -3.76518,-0.08199 -5.64777,-0.122955 -6.97364,-0.151919 -13.94728,-0.304434 -20.92089,-0.457809 -55.33356,-1.214843 -110.67578,-1.81482 -166.02018,-2.272919 -2.32951,-0.01958 -4.659,-0.04004 -6.98849,-0.06099 -68.03849,-0.60831 -136.10565,1.141378 -204.12958,2.426382 -50.99223,0.962818 -101.98498,1.850165 -152.98059,2.61329 -1.38697,0.02077 -2.77395,0.04155 -4.16093,0.06232 -21.7996,0.326395 -43.59927,0.647947 -65.39895,0.968926 -19.69135,0.289948 -39.38268,0.581025 -59.07397,0.875502 -4.15016,0.06205 -8.30033,0.123889 -12.4505,0.185564 -29.71764,0.441797 -59.4344,0.911407 -89.15,1.477997 -1.8544,0.03516 -1.8544,0.03516 -3.7463,0.07104 -11.6492,0.220961 -23.2982,0.444649 -34.947,0.68449 -29.5067,0.603809 -58.9971,0.784455 -88.5098,0.67416 0,-0.33 0,-0.66 0,-1 6.7168,-0.967534 13.4252,-1.368789 20.1996,-1.724819 2.0968,-0.11027 4.1933,-0.224052 6.2899,-0.338688 3.0252,-0.165187 6.0504,-0.329135 9.0756,-0.492126 24.1561,-1.304029 48.3016,-2.70235 72.4349,-4.381867 22.7846,-1.582537 45.5732,-3.081473 68.36708,-4.524555 2.51104,-0.159183 5.02203,-0.319018 7.53302,-0.479076 18.15748,-1.156791 36.31642,-2.252726 54.48378,-3.242926 10.98129,-0.599529 21.95317,-1.27825 32.92189,-2.076898 33.42526,-2.414319 66.90138,-4.000791 100.36996,-5.676545 5.80437,-0.290788 11.60873,-0.581738 17.41308,-0.872852 1.69361,-0.08491 3.38721,-0.169754 5.08082,-0.254539 24.28277,-1.21576 48.55842,-2.51924 72.83032,-3.935109 25.1198,-1.465329 50.24392,-2.805285 75.375,-4.0625 1.25296,-0.06272 1.25296,-0.06272 2.53123,-0.126701 4.16033,-0.208244 8.32067,-0.416382 12.48101,-0.624519 0.80989,-0.04053 1.61979,-0.08105 2.45423,-0.122803 1.62256,-0.08118 3.24513,-0.162339 4.86769,-0.243469 15.7235,-0.786562 31.44513,-1.604519 47.16584,-2.445008 1.06483,-0.05649 2.12965,-0.112974 3.22675,-0.171173 3.06772,-0.162935 6.13534,-0.327554 9.20294,-0.492889 1.02314,-0.05464 2.04628,-0.109278 3.10043,-0.165573 5.4168,-0.295139 10.82889,-0.624828 16.24039,-1.005325 28.57512,-1.961844 57.21046,-2.6038858 85.83626,-3.412209 3.80457,-0.107458 7.60909,-0.2162 11.41361,-0.3253735 57.02903,-1.6363788 114.05811,-2.9439575 171.10462,-3.802457 0.66816,-0.010064 1.33633,-0.020128 2.02474,-0.030498 65.97388,-0.9930079 131.94977,-1.8793123 197.92763,-2.56280607 2.968661,-0.030875 5.937315,-0.0623766 8.905968,-0.0939827 9.749645,-0.10274924 19.499216,-0.19296758 29.249205,-0.25586415 C -9.1934584,0.0899019 -4.5967697,0.05097687 0,0 Z"
         fill="#ff4500"
         transform="translate(1195.8979,1524.9366)"
         id="path3-9" /><path
         d="m 0,0 c 1.65,0 3.3,0 5,0 0.33,8.58 0.66,17.16 1,26 0.66,-2.31 1.32,-4.62 2,-7 1.65,0 3.3,0 5,0 -0.66,4.29 -1.32,8.58 -2,13 6.93,-13.365 6.93,-13.365 14,-27 1.65,0.66 3.3,1.32 5,2 -1.639638,5.946157 -4.623755,11.035221 -7.625,16.375 -0.515625,0.926836 -1.03125,1.853672 -1.5625,2.808594 C 19.546172,28.458294 18.275241,30.730288 17,33 c 0.33,0.33 0.66,0.66 1,1 3.465,-3.96 3.465,-3.96 7,-8 1.98,1.98 1.98,1.98 4,4 -2.64,2.97 -5.28,5.94 -8,9 2.63977,0 3.899987,-0.96693 6.175781,-2.300781 0.828223,-0.482754 1.656446,-0.965508 2.509766,-1.462891 0.866894,-0.511113 1.733789,-1.022226 2.626953,-1.548828 1.282939,-0.749268 1.282939,-0.749268 2.591797,-1.513672 0.83209,-0.486621 1.66418,-0.973242 2.521484,-1.474609 1.200037,-0.70117 1.200037,-0.70117 2.424317,-1.416504 1.715802,-1.023714 3.398256,-2.103253 5.067871,-3.200684 C 45.605039,25.724961 46.292109,25.367891 47,25 c 0.99,0.33 1.98,0.66 3,1 0.33,0.99 0.66,1.98 1,3 -1.895833,1.166667 -3.791667,2.333333 -5.6875,3.5 -0.577822,0.356587 -1.155645,0.713174 -1.750977,1.080566 -3.08555,1.90284 -6.177182,3.793974 -9.284179,5.661621 -0.887157,0.536573 -0.887157,0.536573 -1.792237,1.083985 -1.664988,1.006443 -3.3328,2.008208 -5.000732,3.009765 C 24.913239,44.761647 24.913239,44.761647 24,47 24.675469,46.783437 25.350937,46.566875 26.046875,46.34375 26.938906,46.065312 27.830937,45.786875 28.75,45.5 29.631719,45.221562 30.513437,44.943125 31.421875,44.65625 34,44 34,44 38,44 c 0.33,1.65 0.66,3.3 1,5 -8.428571,2.285714 -8.428571,2.285714 -13,2 0,0.66 0,1.32 0,2 10.23,0 20.46,0 31,0 0,1.32 0,2.64 0,4 -10.56,0 -21.12,0 -32,0 0,0.99 0,1.98 0,3 1.013203,0.19916 1.013203,0.19916 2.046875,0.402344 0.892031,0.176601 1.784062,0.353203 2.703125,0.535156 0.881719,0.174023 1.763437,0.348047 2.671875,0.527344 C 34.632351,61.923685 36.815121,62.433361 39,63 c -0.33,1.65 -0.66,3.3 -1,5 -2,-0.333333 -4,-0.666667 -6,-1 -2.97,-0.495 -2.97,-0.495 -6,-1 7.92,4.95 15.84,9.9 24,15 -0.66,1.65 -1.32,3.3 -2,5 C 40.979251,82.346345 34.277148,78.35363 27.685059,73.984619 25.128769,72.30285 22.919348,70.973116 20,70 c 0.661289,0.759258 1.322578,1.518516 2.003906,2.300781 0.844336,0.993867 1.688672,1.987735 2.558594,3.011719 0.846914,0.986133 1.693828,1.972266 2.566406,2.988281 C 27.746367,79.191523 28.363828,80.082266 29,81 c -0.33,0.99 -0.66,1.98 -1,3 -0.99,0.33 -1.98,0.66 -3,1 -2.64,-2.97 -5.28,-5.94 -8,-9 0.519492,0.966797 1.038984,1.933594 1.574219,2.929687 C 30,100.23789 30,100.23789 30,103 c -2.475,0.495 -2.475,0.495 -5,1 -4.62,-8.58 -9.24,-17.16 -14,-26 0.99,4.95 0.99,4.95 2,10 0,1.32 0,2.64 0,4 -1.65,0 -3.3,0 -5,0 -0.99,-3.96 -0.99,-3.96 -2,-8 -0.33,8.58 -0.66,17.16 -1,26 -1.65,0 -3.3,0 -5,0 -0.33,-9.24 -0.66,-18.48 -1,-28 -0.66,2.97 -1.32,5.94 -2,9 -2.475,0.495 -2.475,0.495 -5,1 0.7790433,-10.558087 0.7790433,-10.558087 3,-15 -0.66,0 -1.32,0 -2,0 -0.271831,0.71116 -0.5436621,1.422319 -0.8237305,2.155029 -1.1923418,2.883844 -2.5459485,5.602126 -3.9965825,8.364502 -0.53496,1.021582 -1.069921,2.043164 -1.621093,3.095703 -0.555586,1.055098 -1.111172,2.110196 -1.683594,3.197266 -0.56332,1.074434 -1.126641,2.148867 -1.707031,3.255859 C -18.219198,99.713381 -19.608589,102.35721 -21,105 c -1.32,-0.66 -2.64,-1.32 -4,-2 0.586675,-3.750636 1.6494,-6.559276 3.503906,-9.863281 0.493067,-0.886231 0.986133,-1.772461 1.494141,-2.685547 0.516269,-0.912012 1.032539,-1.824024 1.564453,-2.763672 0.520137,-0.931348 1.040273,-1.862695 1.576172,-2.822266 C -15.58023,82.573362 -14.292979,80.285184 -13,78 c -2.908025,2.219282 -4.953128,3.929691 -7,7 -1.32,-0.66 -2.64,-1.32 -4,-2 0.566624,-3.623203 1.89087,-5.174657 4.5625,-7.625 1.18085,-1.088188 2.335603,-2.206932 3.4375,-3.375 0,-0.66 0,-1.32 0,-2 -3.669429,1.370614 -6.938595,3.033548 -10.300781,5.039062 -0.976465,0.580079 -1.95293,1.160157 -2.958985,1.757813 -1.007402,0.603281 -2.014804,1.206563 -3.052734,1.828125 -1.026738,0.611016 -2.053477,1.222031 -3.111328,1.851562 C -37.951139,81.981194 -40.476434,83.489099 -43,85 c -1.5,-1.375 -1.5,-1.375 -3,-3 0,-0.66 0,-1.32 0,-2 2.171387,-1.496338 2.171387,-1.496338 5.179688,-3.222656 1.073789,-0.620684 2.147578,-1.241367 3.253906,-1.88086 1.135664,-0.646464 2.271328,-1.292929 3.441406,-1.958984 1.12793,-0.650332 2.255859,-1.300664 3.417969,-1.970703 C -22.578621,66.289311 -22.578621,66.289311 -20,65 c -0.88752,0.216562 -0.88752,0.216562 -1.792969,0.4375 C -25.925299,66.408227 -29.722976,67.275937 -34,67 c 0,-1.65 0,-3.3 0,-5 4.29,-0.99 8.58,-1.98 13,-3 0,-0.66 0,-1.32 0,-2 -49.83,0 -99.66,0 -151,0 0,-1.65 0,-3.3 0,-5 48.51,-0.33 97.02,-0.66 147,-1 -2.97,-0.99 -5.94,-1.98 -9,-3 0,-1.65 0,-3.3 0,-5 5.055319,0.777741 10.017163,1.859484 15,3 0,-0.66 0,-1.32 0,-2 -0.720908,-0.26877 -1.441816,-0.537539 -2.18457,-0.814453 C -26.007112,41.154827 -30.315869,38.258616 -34.75,35.5 c -0.970664,-0.594258 -1.941328,-1.188516 -2.941406,-1.800781 -0.92168,-0.571055 -1.84336,-1.14211 -2.792969,-1.730469 -0.842725,-0.521426 -1.685449,-1.042852 -2.553711,-1.580078 C -45,29 -45,29 -46,27 c 0.99,-1.485 0.99,-1.485 2,-3 3.632923,1.348477 6.799319,2.98485 10.082031,5.039062 0.931348,0.580079 1.862696,1.160157 2.822266,1.757813 0.959707,0.603281 1.919414,1.206562 2.908203,1.828125 0.979043,0.611016 1.958086,1.222031 2.966797,1.851562 C -22.811545,35.980817 -20.404759,37.488727 -18,39 -19.320584,36.280284 -20.645895,34.041596 -22.625,31.75 -23.800625,30.38875 -23.800625,30.38875 -25,29 c 0.66,-0.66 1.32,-1.32 2,-2 2.615897,0.211814 3.748528,0.754544 5.632813,2.59375 0.492421,0.629062 0.984843,1.258125 1.492187,1.90625 2.073877,2.688038 2.073877,2.688038 4.875,4.5 -0.347805,-0.665317 -0.69561,-1.330635 -1.053955,-2.016113 -1.586729,-3.03601 -3.172644,-6.072445 -4.758545,-9.108887 -0.820811,-1.570078 -0.820811,-1.570078 -1.658203,-3.171875 C -21.019916,16.820996 -23.564257,11.939859 -26,7 c 2.475,-0.99 2.475,-0.99 5,-2 4.880349,8.56985 9.698769,17.12004 14,26 -0.33,-3.96 -0.66,-7.92 -1,-12 1.65,0.33 3.3,0.66 5,1 0.99,3.96 0.99,3.96 2,8 0.33,-9.24 0.66,-18.48 1,-28 z"
         fill="#ff4500"
         id="path4-3"
         transform="translate(708,682)" /></g></g><g
     inkscape:groupmode="layer"
     id="layer1"
     inkscape:label="text"><path
       id="path6"
       style="fill:#000000;fill-opacity:1;stroke:#ffffff;stroke-opacity:1"
       d="M 56.974609 -0.2109375 C 55.424847 -0.19999386 53.874016 -0.19309895 52.324219 -0.18945312 C 48.226286 -0.18432559 44.129128 -0.17240148 40.03125 -0.15039062 C 35.798807 -0.1275092 31.566475 -0.11387548 27.333984 -0.10351562 C 18.222605 -0.081949275 9.1112854 -0.0467001 0 0 C -1.3285284 5.7123333 -2.6788932 11.420703 -3.9042969 17.15625 C -4.2908539 19.003739 -4.6761227 20.850148 -5.0644531 22.697266 L -5.4980469 24.757812 C -7.6211107 34.884781 -9.7421559 45.011536 -12.070312 55.09375 C -13.857141 62.789063 -15.508654 70.479779 -16.9375 78.25 C -18.195505 85.098634 -19.629618 91.883405 -21.214844 98.664062 C -25.072762 115.03774 -28.233838 131.40303 -31 148 L 19 148 C 20 146 19.999268 146 20.476562 143.89062 L 20.980469 141.25 L 21.5625 138.25391 C 23.569646 127.81894 25.778183 117.45992 28.25 107.125 C 29.98659 100.0637 31.337194 93.242236 31.878906 85.980469 L 32 84 L 36 84 C 36 87 35.999268 86.999512 36.5625 89.089844 L 37.355469 91.507812 L 38.234375 94.222656 C 40.597885 101.42343 42.930141 108.62886 45.027344 115.91211 C 48.151343 126.82251 52.013956 137.37055 56 148 L 108 148 C 103.77637 136.73697 99.618571 125.46572 95.236328 114.26758 L 94.183594 111.59375 C 93.00031 108.57413 91.81692 105.55368 90.630859 102.53516 C 89.818667 100.46836 89.006194 98.403247 88.195312 96.335938 C 86.006012 90.751861 83.816352 85.166489 81.623047 79.583984 L 81 78 C 84.599147 78 84.599147 78 95 72 C 105.55129 64.385834 111.45538 54.737627 114 42 C 114.87096 30.861581 113.67508 20.817977 106.3125 11.972656 C 93.257205 -0.45707229 93.257602 -0.45654968 56.974609 -0.2109375 z M 60.34375 15.820312 C 63.381367 15.897218 63.904703 16.317995 66 18 C 70.779916 25.321274 69.837678 34.785615 68.496094 43.136719 C 66.19438 52.356725 62.455685 60.913727 55 67 C 50.579894 68.838064 46.889479 69.222234 42.125 69.125 L 38.632812 69.070312 L 36 69 C 37.529392 58.740279 39.77632 48.672765 42.0625 38.5625 C 42.61016 36.126872 43.156792 33.691786 43.703125 31.255859 C 44.040496 29.753086 44.379371 28.250368 44.71875 26.748047 C 45.524402 23.173588 46.301797 19.597083 47 16 C 49.416969 15.945889 51.832718 15.906277 54.25 15.875 L 56.316406 15.824219 C 58.038872 15.807496 59.331211 15.794677 60.34375 15.820312 z "
       transform="translate(932,1119)" /><path
       d="M0 0 C-1.51949988 7.04695597 -3.24560519 14.02418487 -5.0625 21 C-5.33126953 22.04800781 -5.60003906 23.09601563 -5.87695312 24.17578125 C-6.26463867 25.66658203 -6.26463867 25.66658203 -6.66015625 27.1875 C-7.01025757 28.53908203 -7.01025757 28.53908203 -7.36743164 29.91796875 C-8 32 -8 32 -9 33 C-11.8116338 33.08861992 -14.59858255 33.11522355 -17.41015625 33.09765625 C-18.25219101 33.0962413 -19.09422577 33.09482635 -19.96177673 33.09336853 C-22.66205335 33.08775263 -25.36224828 33.07519748 -28.0625 33.0625 C-29.88867068 33.05748705 -31.71484266 33.05292379 -33.54101562 33.04882812 C-38.02737542 33.03777804 -42.51367384 33.02050279 -47 33 C-47.0093457 32.42556152 -47.01869141 31.85112305 -47.02832031 31.25927734 C-47.08235031 28.63034696 -47.16592894 26.00313433 -47.25 23.375 C-47.26417969 22.47136719 -47.27835938 21.56773438 -47.29296875 20.63671875 C-47.50377268 14.86069119 -48.11642832 11.37964835 -52 7 C-56.32853311 5.55715563 -60.5718646 5.12746675 -64.90234375 6.68359375 C-70.10397093 9.4266838 -73.41032158 13.19913802 -76.3125 18.3125 C-77.61741404 23.4135276 -77.48488661 28.09775255 -76.1875 33.1875 C-69.60360929 41.65250234 -59.24398097 43.01931617 -49.34741211 45.11450195 C-35.55055189 48.08543131 -23.63586726 52.21922621 -14.609375 63.78125 C-13.5625 65.4375 -13.5625 65.4375 -12 69 C-11.70480469 69.66773438 -11.40960937 70.33546875 -11.10546875 71.0234375 C-6.48322364 83.39163676 -7.79402351 97.54425705 -13.09765625 109.4296875 C-19.27173169 121.76476464 -30.61954325 129.00123382 -43 134 C-43.69480469 134.28746094 -44.38960937 134.57492187 -45.10546875 134.87109375 C-47.38129769 135.72067786 -49.65100376 136.37851669 -52 137 C-53.55654297 137.41958984 -53.55654297 137.41958984 -55.14453125 137.84765625 C-79.54744652 143.2509794 -112.71551093 143.4244153 -135 131 C-135.95003906 130.4740625 -136.90007813 129.948125 -137.87890625 129.40625 C-140 127 -140 127 -140.00390625 123.03515625 C-138.9739307 117.10215661 -137.45037118 111.26255501 -135.9375 105.4375 C-134.968125 101.663125 -133.99875 97.88875 -133 94 C-119.47 94 -105.94 94 -92 94 C-91.67 100.27 -91.34 106.54 -91 113 C-87.36205145 118.92390361 -87.36205145 118.92390361 -82 122 C-76.07271146 122.78284943 -71.85932682 121.24662447 -67 118 C-62.13156873 113.13156873 -59.85806166 107.72522641 -59.5625 100.9375 C-59.73427398 96.21371559 -60.75891464 93.57350438 -64 90 C-71.08093177 83.81066432 -80.08129057 81.72576561 -88.8828125 78.953125 C-103.19452849 74.41139963 -114.13910201 69.30709646 -121.8125 55.8125 C-125.69804826 46.6098857 -125.07163044 35.04093902 -122.09375 25.65234375 C-115.84216728 10.49225565 -103.64597492 1.30674338 -89 -5 C-60.99919149 -15.93269322 -25.70450762 -17.13633841 0 0 Z "
       fill="#FCFCFC"
       transform="translate(786,1129)"
       id="path8"
       style="fill:#000000;fill-opacity:1;stroke:#ffffff;stroke-opacity:1" /><path
       d="M0 0 C-1.41955839 9.83641835 -3.20759865 19.56370271 -5.125 29.3125 C-6.07375 34.159375 -7.0225 39.00625 -8 44 C-21.86 44 -35.72 44 -50 44 C-49.6875 26.3125 -49.6875 26.3125 -49.54956055 20.75512695 C-49.53494889 19.29119696 -49.52220982 17.82724657 -49.51171875 16.36328125 C-49.48613892 15.6115564 -49.46055908 14.85983154 -49.4342041 14.08532715 C-49.43084283 10.02289416 -49.81810938 8.22922254 -52.37646484 5.00512695 C-55.31734697 2.75745666 -56.33056457 2.40775086 -59.9375 2.875 C-60.75089844 2.95492188 -61.56429688 3.03484375 -62.40234375 3.1171875 C-71.3192928 6.14760928 -75.07410587 15.1418143 -79 23 C-89.63760094 45.07081192 -93.15101915 72.1139637 -93.375 96.375 C-93.38901855 97.41527344 -93.40303711 98.45554687 -93.41748047 99.52734375 C-93.37581808 106.08222554 -93.05137285 112.50745265 -88.52416992 117.68920898 C-85.97636375 119.88033046 -83.49994656 119.47036596 -80.2734375 119.33984375 C-75.24851231 118.58869514 -72.17643504 115.45994481 -69 111.75 C-62.50743817 102.63314808 -59.87235146 90.53195535 -57 80 C-42.81 80 -28.62 80 -14 80 C-14.73252766 85.86022129 -15.55323106 91.570036 -16.7253418 97.34741211 C-17.50884326 101.23295789 -18.14558636 105.07602438 -18.59375 109.015625 C-20.21258343 121.37708468 -20.21258343 121.37708468 -24.84375 125.58203125 C-27.91471267 127.16938695 -30.77747133 128.37977399 -34.06347656 129.39550781 C-35.93267971 129.97898575 -37.761601 130.68698601 -39.5859375 131.3984375 C-62.99209748 140.18209406 -91.76652146 141.72504431 -115.3125 132.8125 C-128.73042231 126.70515764 -137.25921464 117.95687458 -142.95703125 104.48046875 C-150.37759688 79.71745761 -147.00798835 51.59855831 -135.17578125 28.81640625 C-124.36748647 9.23587767 -107.08055018 -3.21201134 -86.375 -10.875 C-57.62799808 -19.14176308 -25.99760906 -14.08203824 0 0 Z "
       fill="#FCFCFC"
       transform="translate(1202,1131)"
       id="path9"
       style="fill:#000000;fill-opacity:1;stroke:#ffffff;stroke-opacity:1" /><path
       id="path10"
       style="fill:#000000;fill-opacity:1;stroke:#ffffff;stroke-opacity:1"
       d="M 5.2753906 -0.33984375 C 2.3280334 -0.36003113 2.3285217 -0.36076355 0 0 C -2 3 -2.0009766 3.0007324 -3.1992188 5.4355469 L -4.546875 8.3632812 L -6.0839844 11.689453 C -7.222063 14.164632 -8.3628321 16.640392 -9.5058594 19.113281 C -10.110868 20.422106 -10.71536 21.730212 -11.320312 23.039062 C -14.181749 29.236865 -17.062204 35.425255 -19.953125 41.609375 C -26.164624 54.892664 -32.338921 68.193255 -38.5 81.5 C -42.689824 90.551614 -46.873794 99.604698 -51.101562 108.63867 L -52.078125 110.72266 C -52.705538 112.06235 -53.333467 113.40252 -53.960938 114.74219 C -59.124836 125.7667 -64.204073 136.8095 -69 148 L -46 148 L -35.75 124.9375 L -30 112 L 14 111 C 14 125 14 125 16 148 L 71 148 C 71 145.01528 71.00195 142.0237 70.759766 139.04883 L 70.40625 135.81641 C 70.188503 133.80858 69.970728 131.80026 69.748047 129.79297 C 69.580594 128.28519 69.415058 126.77758 69.25 125.26953 C 68.051713 114.30021 66.81416 103.33577 65.574219 92.371094 C 65.315234 90.081581 65.055661 87.791488 64.796875 85.501953 C 64.005722 78.501578 63.215907 71.501559 62.417969 64.501953 C 61.994287 60.785966 61.571444 57.069802 61.150391 53.353516 L 60.902344 51.160156 C 59.615264 39.801413 58.418868 28.436768 57.316406 17.058594 L 56.953125 13.234375 L 56.615234 9.7207031 C 56.300539 6.3795305 55.908541 3.2332548 55 0 C 48.515676 -0.06309861 42.031425 -0.11334822 35.546875 -0.14648438 C 32.906243 -0.15877018 30.265618 -0.17245974 27.625 -0.1875 C 23.722376 -0.22560595 19.820748 -0.2624596 15.917969 -0.27929688 L 12.226562 -0.29296875 L 8.6113281 -0.33984375 L 5.2753906 -0.33984375 z M 5.4140625 31.613281 L 6.4140625 31.613281 C 6.9673625 36.662681 7.5188594 41.711919 8.0683594 46.761719 C 8.2549594 48.474419 8.4411063 50.187891 8.6289062 51.900391 C 10.160206 65.874491 11.414063 79.507081 11.414062 93.613281 L -21.585938 93.613281 C -18.210938 83.488281 -18.210478 83.487756 -16.580078 79.910156 C -16.216078 79.105456 -15.853616 78.301756 -15.478516 77.472656 C -15.094116 76.634956 -14.7085 75.796694 -14.3125 74.933594 C -13.9068 74.040194 -13.501884 73.147063 -13.083984 72.226562 C -11.797384 69.395262 -10.503937 66.566581 -9.2109375 63.738281 C -8.3511375 61.849181 -7.4917125 59.959813 -6.6328125 58.070312 C -4.6309125 53.669013 -2.6254875 49.269594 -0.6171875 44.871094 C 1.3984125 40.454294 3.4067625 36.033881 5.4140625 31.613281 z "
       transform="translate(1524,1119)" /><path
       id="path11"
       style="fill:#000000;fill-opacity:1;stroke:#ffffff;stroke-opacity:1"
       d="M 0 0 C -5.2957684 11.554404 -10.571418 23.114916 -15.927734 34.640625 C -16.953058 36.843478 -17.977732 39.046634 -19.001953 41.25 L -20.679688 44.859375 C -22.873819 49.577466 -25.066711 54.296127 -27.257812 59.015625 C -28.338532 61.343754 -29.419261 63.671879 -30.5 66 C -33.19376 71.800394 -35.887848 77.599428 -38.576172 83.402344 C -39.62547 85.668253 -40.674789 87.935505 -41.724609 90.201172 L -43.3125 93.625 C -46.582108 100.68241 -49.867047 107.73087 -53.193359 114.76172 L -54.304688 117.10938 C -56.119077 120.94704 -57.932222 124.78586 -59.755859 128.61914 C -60.439407 130.0558 -61.120116 131.49361 -61.800781 132.93164 L -62.761719 134.96094 C -64.818647 139.26142 -66.482574 143.44772 -68 148 L -45 148 L -29 112 L 14 111 C 14 113.87615 14.208166 116.68949 14.460938 119.55273 L 14.65625 121.73047 C 14.779186 123.11744 14.902239 124.50367 15.025391 125.89062 L 15.5 131.1875 L 17 148 L 72 148 C 72 145 72.00032 144.99971 71.716797 142.10742 L 71.3125 138.52539 C 71.160598 137.16736 71.009521 135.80918 70.857422 134.45117 C 70.604067 132.20937 70.350871 129.9686 70.099609 127.72656 C 69.464517 122.04668 68.826475 116.36695 68.1875 110.6875 C 67.559604 105.10803 66.932619 99.529123 66.308594 93.949219 L 66.042969 91.574219 C 64.759237 80.091073 63.536532 68.604789 62.40625 57.105469 C 61.37416 46.591396 60.254786 36.091972 59.021484 25.599609 L 58.3125 19.625 L 56 0 L 0 0 z M 6 32 L 7 32 C 7.5533147 37.049429 8.1048192 42.098589 8.6542969 47.148438 C 8.840927 48.861062 9.0271111 50.574605 9.2148438 52.287109 C 10.746193 66.261179 12 79.893758 12 94 L -21 94 C -17.62501 83.87503 -17.624522 83.874541 -15.994141 80.296875 L -14.890625 77.859375 L -13.726562 75.320312 L -12.498047 72.613281 C -11.211448 69.782011 -9.9180363 66.953335 -8.625 64.125 C -7.7652118 62.235865 -6.9058334 60.346544 -6.046875 58.457031 C -4.0450394 54.055658 -2.0395323 49.656248 -0.03125 45.257812 C 1.984344 40.840985 3.9927486 36.420624 6 32 z "
       transform="translate(1254,1119)" /><path
       id="path12"
       style="fill:#000000;fill-opacity:1;stroke:#ffffff;stroke-opacity:1"
       d="M 0 0 C -5.2957684 11.554404 -10.571418 23.114916 -15.927734 34.640625 C -16.953058 36.843478 -17.977732 39.046634 -19.001953 41.25 L -20.679688 44.859375 C -22.873819 49.577466 -25.066711 54.296127 -27.257812 59.015625 C -28.338532 61.343754 -29.419261 63.671879 -30.5 66 C -33.19376 71.800394 -35.887848 77.599428 -38.576172 83.402344 C -39.62547 85.668253 -40.674789 87.935505 -41.724609 90.201172 L -43.3125 93.625 C -46.582108 100.68241 -49.867047 107.73087 -53.193359 114.76172 L -54.304688 117.10938 C -56.119077 120.94704 -57.932222 124.78586 -59.755859 128.61914 C -60.439407 130.0558 -61.120116 131.49361 -61.800781 132.93164 L -62.761719 134.96094 C -64.818647 139.26142 -66.482574 143.44772 -68 148 L -45 148 L -29 112 L 14 111 C 14 113.87615 14.208166 116.68949 14.460938 119.55273 L 14.65625 121.73047 C 14.779186 123.11744 14.902239 124.50367 15.025391 125.89062 L 15.5 131.1875 L 17 148 L 72 148 C 70.907134 135.97847 69.817493 124.00666 68.517578 112.01367 L 68.25 109.59375 L 67.941406 106.80078 C 67.725539 104.84788 67.511377 102.89446 67.296875 100.94141 C 66.961305 97.880336 66.624756 94.818869 66.289062 91.757812 C 65.587676 85.376875 64.889071 78.996319 64.207031 72.613281 C 61.623869 48.390167 58.837206 24.195061 56 0 L 0 0 z M 6 32 L 7 32 C 7.5533147 37.049429 8.1048192 42.098589 8.6542969 47.148438 C 8.840927 48.861062 9.0271111 50.574605 9.2148438 52.287109 C 10.746193 66.261179 12 79.893758 12 94 L -21 94 C -17.62501 83.87503 -17.624522 83.874541 -15.994141 80.296875 L -14.890625 77.859375 L -13.726562 75.320312 L -12.498047 72.613281 C -11.211448 69.782011 -9.9180363 66.953335 -8.625 64.125 C -7.7652118 62.235865 -6.9058334 60.346544 -6.046875 58.457031 C -4.0450394 54.055658 -2.0395323 49.656248 -0.03125 45.257812 C 1.984344 40.840985 3.9927486 36.420624 6 32 z "
       transform="translate(564,1119)" /><path
       d="M0 0 C32.34 0 64.68 0 98 0 C95 17 95 17 94 18 C92.49581261 18.09311889 90.98728644 18.11746028 89.48022461 18.11352539 C88.03884377 18.11341209 88.03884377 18.11341209 86.56834412 18.11329651 C85.523564 18.10813522 84.47878387 18.10297394 83.40234375 18.09765625 C82.33834854 18.0962413 81.27435333 18.09482635 80.17811584 18.09336853 C76.76454917 18.08775064 73.351047 18.07519511 69.9375 18.0625 C67.62955824 18.05748731 65.32161545 18.052924 63.01367188 18.04882812 C57.34242574 18.0377754 51.67121747 18.02101987 46 18 C45.91945374 19.06064415 45.91945374 19.06064415 45.83728027 20.14271545 C45.3772876 25.73371145 44.7148218 31.04283786 43.40625 36.49609375 C43.25466431 37.13692398 43.10307861 37.77775421 42.94689941 38.43800354 C42.47169153 40.43961035 41.98608952 42.43851147 41.5 44.4375 C41.17508675 45.79866253 40.85086392 47.15999006 40.52734375 48.52148438 C39.37601808 53.35382935 38.20482842 58.18068632 37 63 C49.87 63 62.74 63 76 63 C75 72 75 72 73 80 C59.8 80 46.6 80 33 80 C32.67 82.97 32.34 85.94 32 89 C31.52005128 91.52866816 31.00087148 94.05022771 30.44140625 96.5625 C30.29219223 97.23869385 30.14297821 97.9148877 29.98924255 98.61157227 C29.51805853 100.74205262 29.04042851 102.8710237 28.5625 105 C28.24631285 106.42438335 27.93055478 107.84886202 27.61523438 109.2734375 C26.74862268 113.18344412 25.87431524 117.09170837 25 121 C24.34 123.97 23.68 126.94 23 130 C38.51 130 54.02 130 70 130 C68 143 68 143 67 148 C34.66 148 2.32 148 -31 148 C-29.87645051 137.88805461 -29.87645051 137.88805461 -28.94921875 133.828125 C-28.74756104 132.92795654 -28.54590332 132.02778809 -28.33813477 131.1003418 C-28.12342529 130.159729 -27.90871582 129.21911621 -27.6875 128.25 C-26.01194674 120.7494174 -24.44649244 113.24718401 -23.0625 105.6875 C-21.38888688 96.61033501 -19.33016665 87.64474507 -17.21337891 78.66186523 C-15.62857071 71.88207383 -14.19523426 65.09773643 -12.9375 58.25 C-11.29868612 49.33125036 -9.34617466 40.50920086 -7.30078125 31.67578125 C-5.66003729 24.57504064 -4.13346929 17.44977149 -2.61157227 10.32275391 C-2.41490967 9.40800293 -2.21824707 8.49325195 -2.015625 7.55078125 C-1.84321289 6.74294189 -1.67080078 5.93510254 -1.49316406 5.1027832 C-1 3 -1 3 0 0 Z "
       fill="#FDFDFD"
       transform="translate(815,1119)"
       id="path14"
       style="fill:#000000;fill-opacity:1;stroke:#ffffff;stroke-opacity:1" /><path
       d="M0 0 C40.92 0 81.84 0 124 0 C123.24552616 6.03579069 122.19292788 12.03536061 121 18 C108.46 18 95.92 18 83 18 C82.34 21.96 81.68 25.92 81 30 C80.42394496 32.78019387 79.83309421 35.54355569 79.1953125 38.30859375 C78.85794212 39.80117698 78.52062298 41.2937718 78.18334961 42.78637695 C77.92399124 43.9255809 77.92399124 43.9255809 77.65939331 45.08779907 C74.06289461 60.90111076 74.06289461 60.90111076 70.9375 76.8125 C69.28690357 85.90565059 67.24220029 94.89816649 65.17327881 103.90374756 C61.81467114 118.54738607 58.89247114 133.25545197 56 148 C39.17 148 22.34 148 5 148 C6.65 139.75 8.3 131.5 10 123 C11.13427204 117.22844048 11.13427204 117.22844048 12.26806641 111.45678711 C14.59649975 99.65072992 17.12372589 87.91570634 19.88818359 76.2043457 C21.63675558 68.74150502 23.14539209 61.26094212 24.52514648 53.72216797 C25.9191533 46.19176212 27.59440562 38.73676024 29.33813477 31.28027344 C29.53979248 30.41563477 29.7414502 29.55099609 29.94921875 28.66015625 C30.12799561 27.90355713 30.30677246 27.14695801 30.4909668 26.36743164 C31.08673308 23.59661836 31.53407042 20.79557746 32 18 C20.12 18 8.24 18 -4 18 C-3 11 -3 11 0 0 Z "
       fill="#FDFCFC"
       transform="translate(1358,1119)"
       id="path15"
       style="fill:#000000;fill-opacity:1;stroke:#ffffff;stroke-opacity:1" /><path
       d="M0 0 C16.83 0 33.66 0 51 0 C48.09372655 14.53136725 45.18827808 29.04905972 42.07926941 43.53639221 C41.85413351 44.58646517 41.62899761 45.63653812 41.39703941 46.71843147 C41.05161819 48.32927274 41.05161819 48.32927274 40.69921875 49.97265625 C40.21297544 52.24617993 39.72687922 54.51973507 39.24092102 56.7933197 C37.98150585 62.68369205 36.72013751 68.57364435 35.45831299 74.46350098 C33.93401507 81.58059266 32.41223008 88.69822206 30.89000702 95.81575775 C28.59522679 106.5442439 26.29732427 117.27205691 24 128 C39.18 128 54.36 128 70 128 C69.25555353 134.7000182 68.20591137 141.36748749 67 148 C34.66 148 2.32 148 -31 148 C-28.23383789 131.40302735 -25.07202925 115.03823039 -21.21411133 98.66455078 C-19.62888585 91.88389279 -18.19550509 85.09863423 -16.9375 78.25 C-15.50865411 70.479779 -13.85738534 62.7883309 -12.07055664 55.09301758 C-9.74239999 45.01080341 -7.62184314 34.88575723 -5.4987793 24.75878906 C-5.35575882 24.0787532 -5.21273834 23.39871735 -5.06538391 22.69807434 C-4.67705345 20.85095721 -4.29036562 19.00349494 -3.90380859 17.15600586 C-2.65750718 11.42510663 -1.31876742 5.71465884 0 0 Z "
       fill="#FCFCFC"
       transform="translate(426,1119)"
       id="path17"
       style="fill:#000000;fill-opacity:1;stroke:#ffffff;stroke-opacity:1" /></g></svg>
